<svg width="500" height="500" viewBox="0 0 500 500" fill="none" xmlns="http://www.w3.org/2000/svg">
<rect x="0.5" y="0.5" width="499" height="499" rx="49.5" stroke="white"/>
<path d="M81.0156 231.299L81.0158 231.299L91.3277 249.517C91.328 249.517 91.3282 249.517 91.3284 249.518C91.8368 250.427 92.5458 251.633 93.312 252.882C93.8973 253.836 93.8409 255.064 93.3117 256.078C92.7831 257.09 91.8335 257.797 90.7328 257.797C89.6486 257.797 88.9565 257.568 88.4201 257.17C87.8662 256.759 87.4254 256.131 86.9152 255.217L86.9134 255.214L73.423 231.455C73.4225 231.454 73.422 231.453 73.4216 231.452C72.843 230.407 72.3047 229.816 71.5479 229.545C71.1857 229.415 70.8039 229.371 70.4012 229.354C70.1233 229.343 69.8107 229.345 69.4729 229.347C69.3302 229.348 69.183 229.349 69.0321 229.349C67.197 229.349 65.5123 230.582 65.2098 232.457C64.9896 233.822 64.8795 235.187 64.8795 236.553V250.089C64.8795 251.417 64.9457 252.692 65.0382 253.826C65.2088 255.919 63.5999 257.797 61.5599 257.797C59.517 257.797 57.9045 255.913 58.0742 253.816C58.1655 252.688 58.2305 251.418 58.2305 250.089V214.251C58.2305 212.923 58.1643 211.648 58.0718 210.513C57.9012 208.421 59.5101 206.543 61.5501 206.543C63.593 206.543 65.2055 208.427 65.0359 210.523C64.9445 211.651 64.8795 212.922 64.8795 214.251C64.8795 214.949 65.3036 215.498 65.822 215.882C66.3447 216.269 67.0286 216.543 67.7253 216.696C68.4239 216.85 69.1725 216.891 69.8382 216.782C70.4924 216.674 71.1435 216.408 71.5355 215.872C75.5501 210.388 81.2663 206.543 88.3694 206.543C90.2925 206.543 92.2703 206.815 94.0936 207.295C95.4684 207.657 96.1452 209.197 95.5797 210.614C95.2106 211.54 94.3566 212.198 93.2611 212.57C92.1674 212.942 90.8956 213.002 89.8139 212.779C88.4661 212.5 87.0542 212.429 85.7224 212.505C80.069 212.765 75.1564 215.374 71.5477 219.219C69.5278 221.372 69.5441 223.96 70.8179 225.98C72.0755 227.975 74.5412 229.404 77.4116 229.404C78.5455 229.404 79.1591 229.455 79.6299 229.686C80.079 229.906 80.468 230.33 81.0156 231.299Z" stroke="white"/>
<path d="M120.919 225.61L120.919 225.61C122.859 222.623 126.835 216.329 128.998 211.27C130.112 208.665 132.604 206.5 135.302 206.5C137.325 206.5 139.149 207.718 139.925 209.587L140.387 209.395L139.925 209.587L157.166 251.14L157.166 251.14L157.168 251.147C157.371 251.615 157.581 252.082 157.794 252.54C158.307 253.645 158.152 254.952 157.531 255.995C156.911 257.038 155.866 257.754 154.667 257.754C153.461 257.754 152.373 257.028 151.909 255.915L134.973 215.268C134.972 215.267 134.972 215.266 134.972 215.265C134.262 213.496 132.651 212.724 131.047 212.816C129.456 212.907 127.837 213.844 127.018 215.505C125.221 219.151 122.943 222.943 120.7 226.677C120.464 227.069 120.229 227.461 119.994 227.852C117.538 231.949 115.186 235.955 113.679 239.539L113.679 239.54C112.667 241.954 112.087 244.052 111.88 245.806C111.674 247.554 111.834 248.998 112.346 250.073C112.868 251.169 113.747 251.857 114.885 252.063C115.998 252.264 117.302 251.994 118.7 251.312L118.704 251.31C120.936 250.194 123.61 247.772 126.132 245.202C127.919 243.38 129.663 241.448 131.15 239.802C131.769 239.117 132.343 238.481 132.857 237.923L132.858 237.922C134.662 235.949 136.97 234.829 139.068 235.803L139.081 235.809L139.095 235.815C139.255 235.878 139.427 236.075 139.498 236.581C139.565 237.069 139.513 237.715 139.359 238.406C139.207 239.092 138.963 239.79 138.676 240.373C138.382 240.971 138.07 241.392 137.81 241.585C137.337 241.937 136.871 242.315 136.417 242.706L136.414 242.708C135.014 243.933 133.561 245.504 132.07 247.149C131.873 247.367 131.675 247.586 131.477 247.805C130.166 249.256 128.821 250.744 127.432 252.119C124.209 255.309 120.88 257.754 117.406 257.754C115.501 257.754 113.931 257.34 112.698 256.586C111.469 255.835 110.549 254.73 109.963 253.296C108.29 249.113 109.8 244.009 112.414 238.964C114.3 235.324 116.702 231.816 118.759 228.812C119.546 227.664 120.282 226.59 120.919 225.61Z" stroke="white"/>
<path d="M209.822 214.458L209.822 214.458L209.818 214.463L199.815 227.573C199.646 227.669 199.531 227.851 199.531 228.059V250.132C199.531 251.467 199.594 252.749 199.682 253.888C199.843 255.976 198.233 257.84 196.194 257.84C194.138 257.84 192.515 255.944 192.685 253.834C192.775 252.712 192.839 251.451 192.839 250.132V249.577C192.839 238.939 189.48 228.572 183.24 219.956L179.77 215.164C179.236 214.396 178.516 213.392 177.718 212.316C176.963 211.299 176.956 209.861 177.522 208.637C178.088 207.414 179.159 206.543 180.404 206.543C181.289 206.543 182.12 206.968 182.638 207.686L186.151 212.551C192.226 220.967 204.697 221.143 211.008 212.902L215.675 206.807C215.802 206.641 216 206.543 216.209 206.543C216.531 206.543 216.807 206.773 216.922 207.15C217.039 207.529 216.944 207.906 216.674 208.113C214.092 210.086 211.281 212.59 209.822 214.458Z" stroke="white"/>
<path d="M244.058 225.61L244.058 225.61C245.998 222.623 249.973 216.329 252.137 211.27C253.251 208.665 255.743 206.5 258.44 206.5C260.464 206.5 262.288 207.718 263.063 209.587L280.304 251.14L280.304 251.14L280.307 251.147C280.51 251.615 280.72 252.082 280.932 252.54C281.446 253.645 281.291 254.952 280.67 255.996C280.05 257.038 279.005 257.754 277.806 257.754C276.6 257.754 275.512 257.028 275.048 255.915L258.112 215.268C258.111 215.267 258.111 215.266 258.11 215.265C257.401 213.496 255.79 212.724 254.186 212.816C252.595 212.907 250.976 213.844 250.157 215.505C248.359 219.151 246.081 222.943 243.838 226.677C243.603 227.069 243.367 227.461 243.133 227.852C240.676 231.949 238.325 235.955 236.818 239.539L236.818 239.54C235.806 241.954 235.226 244.052 235.019 245.806C234.813 247.554 234.973 248.998 235.484 250.073C236.006 251.169 236.886 251.857 238.024 252.063C239.136 252.264 240.44 251.994 241.838 251.312L241.843 251.31C244.075 250.194 246.748 247.772 249.27 245.202C251.058 243.38 252.802 241.448 254.289 239.802C254.907 239.117 255.482 238.481 255.995 237.923L255.997 237.922C257.801 235.949 260.109 234.829 262.207 235.803L262.22 235.809L262.234 235.815C262.393 235.878 262.566 236.075 262.636 236.581C262.704 237.069 262.651 237.715 262.498 238.406C262.345 239.092 262.102 239.79 261.815 240.373C261.52 240.971 261.209 241.392 260.949 241.585C260.476 241.937 260.009 242.315 259.555 242.706L259.553 242.708C258.153 243.933 256.7 245.504 255.209 247.149C255.012 247.367 254.814 247.586 254.615 247.805C253.304 249.256 251.959 250.744 250.57 252.119C247.348 255.309 244.019 257.754 240.545 257.754C238.64 257.754 237.069 257.34 235.837 256.586C234.608 255.835 233.687 254.73 233.101 253.296C231.429 249.113 232.939 244.009 235.553 238.964C237.438 235.324 239.841 231.816 241.898 228.812C242.685 227.664 243.42 226.59 244.058 225.61Z" stroke="white"/>
<path d="M321.907 206.5C323.949 206.5 325.561 208.38 325.391 210.476C325.298 211.619 325.231 212.906 325.231 214.251V250.046C325.231 251.374 325.297 252.649 325.39 253.783C325.56 255.876 323.951 257.754 321.911 257.754C319.869 257.754 318.256 255.87 318.426 253.774C318.517 252.645 318.582 251.375 318.582 250.046V214.208C318.582 212.882 318.516 211.609 318.424 210.475C318.253 208.38 319.864 206.5 321.907 206.5Z" stroke="white"/>
<path d="M356.974 234.159L356.975 234.159C358.351 233.433 359.727 232.824 361.069 232.23C361.438 232.066 361.804 231.904 362.167 231.741C363.839 230.989 365.44 230.218 366.823 229.237C368.213 228.25 369.393 227.046 370.221 225.424C371.049 223.803 371.508 221.799 371.508 219.235C371.508 214.217 369.871 211.001 367.059 209.069C364.287 207.164 360.463 206.574 356.226 206.574C349.969 206.574 344.898 211.646 344.883 217.902C344.875 221.462 344.865 225.02 344.854 228.579C344.833 235.745 344.811 242.912 344.811 250.089C344.811 251.576 344.888 252.989 344.99 254.211C345.158 256.214 343.835 257.754 341.88 257.754C339.614 257.754 337.828 255.665 337.996 253.339C338.07 252.323 338.119 251.207 338.119 250.046V214.208C338.119 210.144 341.188 206.5 345.139 206.5H363.402C367.471 206.5 371.277 207.545 374.053 209.648C376.811 211.739 378.587 214.9 378.587 219.235C378.587 223.293 377.212 225.966 375.056 227.857C372.874 229.77 369.853 230.918 366.496 231.816L366.496 231.816L366.49 231.817C365.506 232.094 364.459 232.356 363.382 232.626C363.1 232.696 362.817 232.767 362.532 232.839C361.942 232.988 361.638 233.495 361.707 233.997C361.774 234.495 362.197 234.904 362.801 234.904C363.929 234.904 364.541 234.965 365.009 235.208C365.462 235.443 365.853 235.888 366.402 236.881L366.402 236.881L366.406 236.886L373.58 249.474C373.58 249.474 373.581 249.475 373.581 249.475C374.089 250.384 374.798 251.591 375.564 252.839C376.149 253.793 376.093 255.021 375.564 256.035C375.035 257.047 374.086 257.754 372.985 257.754C371.901 257.754 371.209 257.525 370.672 257.127C370.118 256.716 369.678 256.088 369.167 255.174L369.166 255.171L359.325 237.768L359.325 237.768L359.324 237.764C358.432 236.215 357.161 235.483 355.778 235.489C355.303 235.491 354.827 235.58 354.362 235.744C355.154 235.176 356.04 234.651 356.974 234.159ZM351.916 237.359C351.916 237.358 351.918 237.357 351.922 237.356C351.919 237.358 351.917 237.359 351.916 237.359ZM352.176 237.753C352.175 237.753 352.175 237.754 352.175 237.754L352.176 237.753Z" stroke="white"/>
<path d="M403.255 225.61L403.255 225.61C405.195 222.623 409.171 216.329 411.334 211.27C412.448 208.665 414.94 206.5 417.638 206.5C419.661 206.5 421.485 207.718 422.261 209.587L439.502 251.14L439.502 251.14L439.504 251.147C439.707 251.615 439.917 252.082 440.13 252.54C440.643 253.645 440.488 254.952 439.867 255.996C439.247 257.038 438.202 257.754 437.003 257.754C435.797 257.754 434.709 257.028 434.245 255.915L417.309 215.268C417.308 215.267 417.308 215.266 417.308 215.265C416.598 213.496 414.987 212.724 413.383 212.816C411.792 212.907 410.173 213.844 409.354 215.505C407.557 219.151 405.279 222.943 403.036 226.677C402.8 227.069 402.565 227.461 402.33 227.852C399.874 231.949 397.522 235.955 396.015 239.539L396.015 239.54C395.003 241.954 394.423 244.052 394.216 245.806C394.01 247.554 394.17 248.998 394.682 250.073C395.204 251.169 396.083 251.857 397.221 252.063C398.334 252.264 399.638 251.994 401.035 251.312L401.04 251.31C403.272 250.194 405.946 247.772 408.468 245.202C410.255 243.38 411.999 241.448 413.486 239.802C414.105 239.117 414.679 238.481 415.193 237.923L415.194 237.922C416.998 235.949 419.306 234.829 421.404 235.803L421.417 235.809L421.431 235.815C421.591 235.878 421.763 236.075 421.834 236.581C421.901 237.069 421.848 237.715 421.695 238.406C421.543 239.092 421.299 239.79 421.012 240.373C420.718 240.971 420.406 241.392 420.146 241.585C419.673 241.937 419.207 242.315 418.753 242.706L418.75 242.708C417.35 243.933 415.897 245.504 414.406 247.149C414.209 247.367 414.011 247.586 413.813 247.805C412.501 249.256 411.157 250.744 409.768 252.119C406.545 255.309 403.216 257.754 399.742 257.754C397.837 257.754 396.267 257.34 395.034 256.586C393.805 255.835 392.884 254.73 392.299 253.296C390.626 249.113 392.136 244.009 394.75 238.964C396.636 235.324 399.038 231.816 401.095 228.812C401.882 227.664 402.618 226.59 403.255 225.61Z" stroke="white"/>
<path d="M203.343 292.603L203.343 292.603L203.344 292.601C203.679 292.219 203.908 291.706 204.043 291.165C204.178 290.626 204.266 289.918 204.266 289.085C204.266 289.085 204.266 289.085 204.266 289.085L204.309 280.363H204.309V280.361C204.309 280.276 204.307 280.195 204.303 280.118C204.279 279.592 203.901 279.037 203.285 279.037C203.194 279.037 203.107 279.047 203.029 279.056C203.022 279.057 203.016 279.058 203.009 279.058C202.936 279.067 202.87 279.075 202.798 279.078C202.735 279.081 202.669 279.088 202.603 279.099C202.585 279.102 202.568 279.104 202.551 279.107L202.567 279.025C202.605 278.823 202.781 278.678 202.986 278.678H204.66C204.821 278.678 205.008 278.669 205.206 278.659C205.228 278.658 205.251 278.657 205.274 278.656C205.499 278.645 205.741 278.635 205.992 278.635H206.002L206.012 278.634C206.176 278.621 206.324 278.609 206.455 278.595C206.514 278.588 206.598 278.614 206.67 278.676C206.742 278.739 206.762 278.803 206.758 278.843C206.754 278.89 206.713 278.948 206.633 278.967C206.472 279.006 206.342 279.055 206.23 279.106C206.212 279.114 206.195 279.121 206.17 279.13C206.166 279.132 206.161 279.134 206.157 279.136C206.128 279.147 206.09 279.162 206.052 279.182L206.164 279.405L206.052 279.182C205.855 279.281 205.759 279.454 205.712 279.595C205.662 279.747 205.616 279.981 205.573 280.283L205.571 280.296L205.571 280.31C205.554 280.784 205.532 281.299 205.507 281.848C205.468 282.732 205.425 283.706 205.399 284.738L205.399 284.738C205.391 285.033 205.384 285.318 205.377 285.596C205.342 286.934 205.313 288.081 205.313 289.081C205.27 290.434 205.016 291.541 204.535 292.303L204.535 292.303L204.532 292.308C204.123 292.99 203.475 293.537 202.593 293.969C202.438 294.045 202.24 293.989 202.137 293.824L202.06 293.701C202.592 293.359 203.007 292.981 203.343 292.603Z" stroke="white" stroke-width="0.5"/>
<path d="M215.252 280.365H215.252V280.363C215.252 280.283 215.251 280.205 215.247 280.131C215.224 279.603 214.853 279.039 214.229 279.039H214.221L214.213 279.04L213.787 279.066L213.792 279.037C213.84 278.786 214.064 278.606 214.32 278.615C214.524 278.622 214.718 278.629 214.901 278.635C215.641 278.66 216.201 278.68 216.549 278.68C217.368 278.68 218.089 278.669 218.718 278.658C218.811 278.657 218.901 278.655 218.99 278.653C219.503 278.644 219.948 278.637 220.331 278.637V278.637L220.342 278.636C221.113 278.6 221.839 278.563 222.449 278.469C222.278 279.358 222.137 280.301 222.05 281.252C222.039 281.376 221.941 281.473 221.822 281.483C221.673 281.496 221.547 281.375 221.554 281.225L221.569 280.935L221.569 280.935V280.922C221.569 280.435 221.483 280.023 221.304 279.784C221.117 279.535 220.781 279.391 220.337 279.302C219.882 279.211 219.176 279.211 218.181 279.211L218.139 279.211C217.901 279.211 217.696 279.222 217.529 279.232C217.484 279.235 217.436 279.235 217.379 279.236C217.364 279.236 217.349 279.236 217.333 279.236C217.26 279.237 217.175 279.239 217.091 279.249C216.93 279.269 216.7 279.331 216.583 279.564C216.545 279.641 216.519 279.745 216.501 279.85C216.483 279.959 216.471 280.089 216.471 280.229L216.392 282.074C216.335 283.386 217.384 284.481 218.698 284.481C219.185 284.481 219.958 284.407 220.937 284.297L220.913 284.416C220.832 284.807 220.482 285.085 220.08 285.076C219.057 285.055 218.402 285.055 218.096 285.055C216.987 285.055 216.244 286.035 216.221 287.073L216.17 289.382L216.17 289.382V289.387C216.17 289.507 216.174 289.619 216.181 289.723C216.194 289.922 216.235 290.152 216.335 290.349C216.437 290.551 216.612 290.738 216.887 290.793C217.126 290.841 217.531 290.841 218.014 290.841L218.053 290.841C219.164 290.841 220.058 290.799 220.568 290.66C221.08 290.52 221.487 290.277 221.746 289.864C221.927 289.573 222.045 289.171 222.144 288.674C222.196 288.416 222.401 288.226 222.649 288.202L222.749 288.193C222.554 289.211 222.363 290.271 222.241 291.369C221.411 291.344 220.648 291.319 219.953 291.296C218.294 291.242 217.019 291.2 216.119 291.2C215.336 291.2 214.554 291.253 213.814 291.339C213.669 291.356 213.552 291.232 213.57 291.097C213.582 291.009 213.655 290.926 213.765 290.902C214.207 290.803 214.571 290.645 214.792 290.424C215.079 290.136 215.209 289.621 215.209 289.001C215.209 289.001 215.209 289.001 215.209 289.001L215.252 280.365ZM222.879 288.18C222.879 288.18 222.879 288.18 222.879 288.18L222.879 288.18Z" stroke="white" stroke-width="0.5"/>
<mask id="path-11-inside-1_238_5" fill="white">
<path d="M234.321 291.534C233.849 291.676 233.353 291.411 233.213 290.939C232.97 290.115 232.616 288.894 232.137 287.278C231.449 284.958 230.762 282.68 230.031 280.445C229.902 280.016 229.688 279.758 229.387 279.586C229.099 279.421 228.731 279.296 228.248 279.286C228.208 279.285 228.173 279.263 228.155 279.228C228.146 279.209 228.142 279.188 228.145 279.167L228.175 278.96C228.229 278.58 228.554 278.321 228.938 278.335C229.023 278.338 229.115 278.34 229.215 278.34C229.688 278.383 230.16 278.383 230.59 278.383C231.192 278.383 231.793 278.34 232.395 278.297C232.862 278.23 233.199 278.189 233.408 278.154C233.49 278.141 233.571 278.19 233.592 278.271C233.596 278.288 233.597 278.306 233.595 278.323L233.583 278.438C233.542 278.828 233.224 279.124 232.838 279.19C232.509 279.246 232.272 279.317 232.137 279.371C231.922 279.457 231.793 279.672 231.793 279.973C231.793 280.188 231.965 281.047 232.352 282.465C232.696 283.883 233.082 285.301 233.512 286.719C233.922 288.071 234.175 288.994 234.31 289.449C234.321 289.487 234.356 289.513 234.395 289.513C234.433 289.513 234.466 289.489 234.479 289.454L236.97 282.715C237.235 281.998 237.243 281.211 236.993 280.488C236.864 280.059 236.649 279.801 236.348 279.629C236.059 279.464 235.691 279.378 235.205 279.333C235.168 279.33 235.135 279.308 235.118 279.275C235.108 279.254 235.104 279.23 235.109 279.207L235.152 278.981C235.223 278.609 235.547 278.363 235.925 278.377C236.015 278.381 236.113 278.383 236.219 278.383C236.692 278.426 237.165 278.426 237.594 278.426C238.11 278.426 238.669 278.383 239.313 278.34C239.818 278.273 240.191 278.232 240.412 278.196C240.494 278.183 240.576 278.233 240.596 278.314C240.6 278.331 240.601 278.349 240.6 278.366L240.588 278.481C240.547 278.871 240.229 279.168 239.842 279.231C239.494 279.287 239.235 279.359 239.098 279.414C238.884 279.5 238.755 279.715 238.755 280.016C238.755 280.317 239.098 281.735 239.829 284.313C240.542 286.788 241.01 288.526 241.311 289.447C241.324 289.486 241.361 289.513 241.402 289.513C241.439 289.513 241.472 289.492 241.488 289.459C241.509 289.416 241.527 289.373 241.538 289.33C241.55 289.281 241.56 289.232 241.579 289.186C241.612 289.109 241.644 289.019 241.677 288.954C243.782 283.368 244.814 280.36 244.814 279.973C244.814 279.546 244.322 279.336 243.897 279.301C243.762 279.29 243.61 279.285 243.439 279.285H242.426C242.388 279.285 242.354 279.264 242.337 279.23C242.327 279.21 242.324 279.187 242.328 279.166L242.372 278.946C242.442 278.593 242.751 278.353 243.109 278.384C243.256 278.397 243.424 278.411 243.61 278.426C244.212 278.469 244.814 278.469 245.329 278.469C245.802 278.469 246.275 278.469 246.661 278.426C246.735 278.418 246.803 278.412 246.867 278.407C247.185 278.382 247.428 278.671 247.373 278.986C247.333 279.214 247.146 279.382 246.918 279.419C246.708 279.454 246.559 279.502 246.447 279.586C246.275 279.715 246.146 279.93 246.017 280.317L241.865 291.028C241.773 291.266 241.582 291.454 241.341 291.542C240.851 291.722 240.308 291.445 240.161 290.944C239.991 290.36 239.76 289.565 239.485 288.567C239.021 286.88 238.475 285.111 237.927 283.259C237.908 283.196 237.85 283.153 237.785 283.153C237.722 283.153 237.666 283.192 237.645 283.251L234.911 290.973C234.815 291.243 234.596 291.452 234.321 291.534Z"/>
</mask>
<path d="M232.137 287.278L231.658 287.42L232.137 287.278ZM230.031 280.445L229.552 280.589L229.556 280.601L230.031 280.445ZM229.215 278.34L229.26 277.842L229.238 277.84H229.215V278.34ZM232.395 278.297L232.43 278.796L232.448 278.794L232.466 278.792L232.395 278.297ZM232.352 282.465L232.838 282.347L232.836 282.34L232.834 282.334L232.352 282.465ZM236.219 278.383L236.265 277.885L236.242 277.883H236.219V278.383ZM239.313 278.34L239.347 278.839L239.363 278.838L239.379 278.835L239.313 278.34ZM239.098 279.414L239.284 279.878L239.098 279.414ZM239.829 284.313L239.348 284.449L239.348 284.451L239.829 284.313ZM241.677 288.954L242.124 289.177L242.135 289.154L242.145 289.13L241.677 288.954ZM243.61 278.426L243.572 278.924L243.575 278.925L243.61 278.426ZM246.661 278.426L246.612 277.928L246.606 277.929L246.661 278.426ZM246.447 279.586L246.747 279.986L246.447 279.586ZM246.017 280.317L246.483 280.497L246.487 280.486L246.491 280.475L246.017 280.317ZM239.485 288.567L239.003 288.7L239.485 288.567ZM234.911 290.973L235.382 291.14L234.911 290.973ZM237.645 283.251L237.174 283.084L237.645 283.251ZM237.927 283.259L238.406 283.117L237.927 283.259ZM246.918 279.419L247 279.913L246.918 279.419ZM242.372 278.946L242.862 279.044L242.372 278.946ZM243.897 279.301L243.856 279.799L243.897 279.301ZM241.538 289.33L242.023 289.45L241.538 289.33ZM241.579 289.186L242.04 289.38L241.579 289.186ZM240.588 278.481L240.09 278.429L240.588 278.481ZM239.842 279.231L239.762 278.737L239.842 279.231ZM235.152 278.981L234.661 278.887L235.152 278.981ZM242.328 279.166L241.838 279.068L242.328 279.166ZM236.97 282.715L236.501 282.541L236.97 282.715ZM234.479 289.454L234.948 289.627L234.479 289.454ZM241.488 289.459L241.939 289.675L241.488 289.459ZM234.31 289.449L233.83 289.591L234.31 289.449ZM240.6 278.366L240.102 278.314L240.6 278.366ZM228.248 279.286L228.258 278.786L228.248 279.286ZM240.412 278.196L240.333 277.703L240.412 278.196ZM240.161 290.944L239.681 291.085L240.161 290.944ZM235.205 279.333L235.251 278.836L235.205 279.333ZM241.311 289.447L240.836 289.603L241.311 289.447ZM233.595 278.323L234.093 278.376L233.595 278.323ZM235.109 279.207L235.6 279.3L235.109 279.207ZM233.213 290.939L233.693 290.797L233.213 290.939ZM233.693 290.797C233.451 289.979 233.095 288.75 232.616 287.136L231.658 287.42C232.137 289.039 232.489 290.251 232.733 291.08L233.693 290.797ZM232.616 287.136C231.929 284.814 231.239 282.531 230.507 280.29L229.556 280.601C230.284 282.829 230.97 285.101 231.658 287.42L232.616 287.136ZM230.51 280.302C230.348 279.76 230.057 279.393 229.635 279.152L229.139 280.02C229.318 280.123 229.457 280.271 229.552 280.589L230.51 280.302ZM229.635 279.152C229.277 278.948 228.829 278.798 228.258 278.786L228.237 279.786C228.634 279.794 228.92 279.895 229.139 280.02L229.635 279.152ZM228.64 279.238L228.67 279.031L227.68 278.89L227.65 279.097L228.64 279.238ZM228.921 278.835C229.011 278.838 229.109 278.84 229.215 278.84V277.84C229.122 277.84 229.036 277.838 228.956 277.835L228.921 278.835ZM229.17 278.838C229.668 278.883 230.164 278.883 230.59 278.883V277.883C230.157 277.883 229.707 277.883 229.26 277.842L229.17 278.838ZM230.59 278.883C231.212 278.883 231.832 278.838 232.43 278.796L232.359 277.798C231.755 277.841 231.171 277.883 230.59 277.883V278.883ZM232.466 278.792C232.914 278.728 233.276 278.684 233.491 278.647L233.324 277.661C233.123 277.695 232.81 277.733 232.324 277.802L232.466 278.792ZM233.098 278.271L233.086 278.386L234.08 278.49L234.093 278.376L233.098 278.271ZM232.754 278.697C232.399 278.758 232.126 278.837 231.951 278.907L232.323 279.835C232.418 279.797 232.62 279.734 232.922 279.683L232.754 278.697ZM231.951 278.907C231.497 279.089 231.293 279.527 231.293 279.973H232.293C232.293 279.892 232.31 279.854 232.317 279.842C232.321 279.836 232.322 279.835 232.321 279.836C232.321 279.837 232.32 279.836 232.323 279.835L231.951 278.907ZM231.293 279.973C231.293 280.144 231.351 280.468 231.439 280.874C231.533 281.304 231.674 281.882 231.869 282.597L232.834 282.334C232.642 281.63 232.505 281.07 232.416 280.661C232.371 280.457 232.34 280.293 232.319 280.171C232.309 280.11 232.302 280.062 232.298 280.026C232.293 279.986 232.293 279.971 232.293 279.973H231.293ZM231.866 282.583C232.212 284.01 232.601 285.437 233.034 286.864L233.991 286.574C233.564 285.165 233.179 283.756 232.838 282.347L231.866 282.583ZM233.034 286.864C233.444 288.218 233.691 289.12 233.83 289.591L234.789 289.307C234.659 288.867 234.4 287.924 233.991 286.574L233.034 286.864ZM234.948 289.627L237.439 282.888L236.501 282.541L234.01 289.281L234.948 289.627ZM237.472 280.345C237.309 279.803 237.018 279.436 236.596 279.195L236.1 280.063C236.28 280.166 236.418 280.314 236.514 280.632L237.472 280.345ZM236.596 279.195C236.215 278.977 235.763 278.883 235.251 278.836L235.159 279.831C235.619 279.874 235.903 279.951 236.1 280.063L236.596 279.195ZM235.6 279.3L235.643 279.074L234.661 278.887L234.618 279.113L235.6 279.3ZM235.906 278.877C236.001 278.88 236.106 278.883 236.219 278.883V277.883C236.119 277.883 236.028 277.881 235.944 277.878L235.906 278.877ZM236.174 278.881C236.673 278.926 237.168 278.926 237.594 278.926V277.926C237.161 277.926 236.711 277.925 236.265 277.885L236.174 278.881ZM237.594 278.926C238.131 278.926 238.712 278.881 239.347 278.839L239.28 277.841C238.626 277.885 238.089 277.926 237.594 277.926V278.926ZM239.379 278.835C239.864 278.771 240.263 278.726 240.491 278.69L240.333 277.703C240.119 277.737 239.772 277.774 239.247 277.844L239.379 278.835ZM240.102 278.314L240.09 278.429L241.085 278.533L241.097 278.419L240.102 278.314ZM239.762 278.737C239.393 278.797 239.095 278.877 238.913 278.95L239.284 279.878C239.375 279.842 239.595 279.777 239.922 279.725L239.762 278.737ZM238.913 278.95C238.458 279.132 238.255 279.57 238.255 280.016H239.255C239.255 279.935 239.272 279.897 239.279 279.885C239.282 279.879 239.284 279.878 239.283 279.879C239.282 279.88 239.282 279.879 239.284 279.878L238.913 278.95ZM238.255 280.016C238.255 280.149 238.287 280.342 238.33 280.551C238.375 280.776 238.443 281.07 238.533 281.431C238.712 282.153 238.982 283.158 239.348 284.449L240.31 284.177C239.945 282.89 239.679 281.897 239.503 281.19C239.415 280.836 239.351 280.558 239.31 280.352C239.289 280.249 239.274 280.168 239.265 280.107C239.255 280.041 239.255 280.015 239.255 280.016H238.255ZM239.348 284.451C240.057 286.91 240.531 288.671 240.836 289.603L241.786 289.291C241.488 288.382 241.028 286.667 240.309 284.174L239.348 284.451ZM241.939 289.675C241.964 289.623 242 289.543 242.023 289.45L241.053 289.209C241.054 289.204 241.054 289.204 241.052 289.211C241.049 289.217 241.045 289.228 241.037 289.243L241.939 289.675ZM242.04 289.38C242.089 289.263 242.1 289.226 242.124 289.177L241.23 288.73C241.188 288.812 241.134 288.954 241.119 288.991L242.04 289.38ZM242.145 289.13C243.198 286.335 243.984 284.182 244.507 282.678C244.768 281.926 244.965 281.332 245.098 280.9C245.164 280.684 245.215 280.504 245.251 280.361C245.281 280.237 245.314 280.091 245.314 279.973H244.314C244.314 279.951 244.314 279.983 244.28 280.12C244.251 280.238 244.205 280.4 244.141 280.607C244.015 281.022 243.822 281.602 243.563 282.349C243.044 283.842 242.261 285.986 241.209 288.778L242.145 289.13ZM243.938 278.803C243.785 278.79 243.618 278.785 243.439 278.785V279.785C243.601 279.785 243.739 279.79 243.856 279.799L243.938 278.803ZM243.439 278.785H242.426V279.785H243.439V278.785ZM242.818 279.264L242.862 279.044L241.882 278.848L241.838 279.068L242.818 279.264ZM243.066 278.882C243.213 278.895 243.383 278.91 243.572 278.924L243.649 277.927C243.464 277.913 243.299 277.899 243.153 277.886L243.066 278.882ZM243.575 278.925C244.197 278.969 244.816 278.969 245.329 278.969V277.969C244.811 277.969 244.227 277.969 243.646 277.927L243.575 278.925ZM245.329 278.969C245.793 278.969 246.297 278.969 246.717 278.923L246.606 277.929C246.253 277.968 245.811 277.969 245.329 277.969V278.969ZM246.711 278.923C246.781 278.916 246.846 278.911 246.906 278.906L246.827 277.909C246.76 277.914 246.688 277.921 246.612 277.928L246.711 278.923ZM246.836 278.926C246.603 278.965 246.357 279.028 246.147 279.186L246.747 279.986C246.761 279.975 246.814 279.944 247 279.913L246.836 278.926ZM246.147 279.186C245.85 279.408 245.681 279.744 245.543 280.158L246.491 280.475C246.611 280.116 246.699 280.021 246.747 279.986L246.147 279.186ZM245.551 280.136L241.399 290.847L242.332 291.208L246.483 280.497L245.551 280.136ZM240.641 290.804C240.471 290.221 240.241 289.429 239.967 288.435L239.003 288.7C239.279 289.702 239.51 290.5 239.681 291.085L240.641 290.804ZM239.967 288.435C239.502 286.742 238.952 284.961 238.406 283.117L237.447 283.401C237.998 285.261 238.541 287.019 239.003 288.7L239.967 288.435ZM237.174 283.084L234.439 290.806L235.382 291.14L238.117 283.418L237.174 283.084ZM234.439 290.806C234.397 290.926 234.299 291.019 234.177 291.056L234.465 292.013C234.892 291.885 235.233 291.561 235.382 291.14L234.439 290.806ZM237.785 282.653C237.51 282.653 237.266 282.826 237.174 283.084L238.117 283.418C238.067 283.559 237.934 283.653 237.785 283.653V282.653ZM238.406 283.117C238.325 282.842 238.072 282.653 237.785 282.653V283.653C237.628 283.653 237.491 283.55 237.447 283.401L238.406 283.117ZM246.88 278.9C246.88 278.901 246.88 278.903 246.874 278.909C246.868 278.915 246.855 278.923 246.836 278.926L247 279.913C247.414 279.844 247.786 279.532 247.866 279.072L246.88 278.9ZM242.862 279.044C242.885 278.932 242.971 278.874 243.066 278.882L243.153 277.886C242.531 277.832 242 278.255 241.882 278.848L242.862 279.044ZM245.314 279.973C245.314 279.534 245.05 279.235 244.78 279.066C244.518 278.902 244.206 278.825 243.938 278.803L243.856 279.799C244.013 279.812 244.159 279.857 244.249 279.914C244.292 279.94 244.308 279.961 244.312 279.967C244.314 279.97 244.314 279.968 244.314 279.973H245.314ZM242.023 289.45C242.027 289.435 242.031 289.419 242.033 289.409C242.036 289.398 242.038 289.39 242.039 289.384C242.043 289.371 242.043 289.372 242.04 289.38L241.119 288.991C241.079 289.084 241.056 289.195 241.053 289.209L242.023 289.45ZM240.09 278.429C240.076 278.565 239.956 278.706 239.762 278.737L239.922 279.725C240.501 279.631 241.017 279.177 241.085 278.533L240.09 278.429ZM235.643 279.074C235.665 278.957 235.763 278.871 235.906 278.877L235.944 277.878C235.331 277.854 234.78 278.261 234.661 278.887L235.643 279.074ZM242.784 279.006C242.824 279.086 242.836 279.176 242.818 279.264L241.838 279.068C241.812 279.198 241.83 279.334 241.889 279.454L242.784 279.006ZM237.439 282.888C237.744 282.062 237.753 281.157 237.465 280.325L236.52 280.652C236.733 281.265 236.726 281.933 236.501 282.541L237.439 282.888ZM242.426 278.785C242.578 278.785 242.716 278.871 242.784 279.006L241.889 279.454C241.991 279.657 242.199 279.785 242.426 279.785V278.785ZM234.395 290.013C234.642 290.013 234.863 289.859 234.948 289.627L234.01 289.281C234.07 289.12 234.223 289.013 234.395 289.013V290.013ZM241.402 290.013C241.625 290.013 241.838 289.887 241.939 289.675L241.037 289.243C241.107 289.097 241.253 289.013 241.402 289.013V290.013ZM233.086 278.386C233.072 278.521 232.952 278.663 232.754 278.697L232.922 279.683C233.496 279.585 234.013 279.135 234.08 278.49L233.086 278.386ZM233.83 289.591C233.905 289.845 234.138 290.013 234.395 290.013V289.013C234.573 289.013 234.737 289.129 234.789 289.307L233.83 289.591ZM240.111 278.435C240.101 278.396 240.098 278.355 240.102 278.314L241.097 278.419C241.105 278.343 241.099 278.267 241.081 278.193L240.111 278.435ZM228.67 279.031C228.686 278.916 228.778 278.83 228.921 278.835L228.956 277.835C228.33 277.813 227.772 278.243 227.68 278.89L228.67 279.031ZM241.399 290.847C241.358 290.952 241.275 291.034 241.169 291.073L241.514 292.011C241.889 291.874 242.187 291.581 242.332 291.208L241.399 290.847ZM228.258 278.786C228.398 278.789 228.534 278.868 228.602 279.005L227.708 279.452C227.811 279.658 228.019 279.781 228.237 279.786L228.258 278.786ZM233.491 278.647C233.333 278.674 233.154 278.582 233.107 278.392L234.077 278.15C233.989 277.799 233.646 277.607 233.324 277.661L233.491 278.647ZM240.491 278.69C240.336 278.715 240.158 278.625 240.111 278.435L241.081 278.193C240.993 277.842 240.652 277.652 240.333 277.703L240.491 278.69ZM241.169 291.073C240.953 291.152 240.707 291.029 240.641 290.804L239.681 291.085C239.909 291.862 240.75 292.291 241.514 292.011L241.169 291.073ZM228.602 279.005C228.638 279.077 228.652 279.158 228.64 279.238L227.65 279.097C227.633 279.218 227.653 279.342 227.708 279.452L228.602 279.005ZM235.251 278.836C235.383 278.848 235.503 278.927 235.565 279.051L234.671 279.498C234.766 279.689 234.952 279.812 235.159 279.831L235.251 278.836ZM240.836 289.603C240.918 289.852 241.149 290.013 241.402 290.013V289.013C241.573 289.013 241.731 289.121 241.786 289.291L240.836 289.603ZM233.107 278.392C233.097 278.353 233.094 278.312 233.098 278.271L234.093 278.376C234.1 278.3 234.095 278.224 234.077 278.15L233.107 278.392ZM235.565 279.051C235.604 279.128 235.616 279.216 235.6 279.3L234.618 279.113C234.593 279.244 234.611 279.379 234.671 279.498L235.565 279.051ZM246.906 278.906C246.906 278.906 246.904 278.906 246.901 278.905C246.898 278.905 246.895 278.904 246.892 278.903C246.886 278.9 246.882 278.897 246.881 278.896C246.88 278.895 246.88 278.894 246.881 278.895C246.881 278.895 246.881 278.896 246.88 278.9L247.866 279.072C247.971 278.464 247.5 277.855 246.827 277.909L246.906 278.906ZM232.733 291.08C232.952 291.822 233.731 292.233 234.465 292.013L234.177 291.056C233.967 291.119 233.753 291.001 233.693 290.797L232.733 291.08Z" fill="white" mask="url(#path-11-inside-1_238_5)"/>
<path d="M254.654 280.365H254.654V280.363C254.654 280.283 254.653 280.205 254.65 280.131C254.626 279.603 254.255 279.039 253.631 279.039H253.623L253.615 279.04L253.189 279.066L253.195 279.037C253.243 278.786 253.467 278.606 253.722 278.615C253.927 278.622 254.121 278.629 254.304 278.635C255.043 278.66 255.603 278.68 255.951 278.68C256.77 278.68 257.492 278.669 258.12 278.658C258.213 278.657 258.304 278.655 258.392 278.653C258.906 278.644 259.35 278.637 259.733 278.637V278.637L259.745 278.636C260.516 278.6 261.241 278.563 261.852 278.469C261.68 279.358 261.54 280.301 261.453 281.252C261.441 281.376 261.344 281.473 261.224 281.483C261.075 281.496 260.949 281.375 260.956 281.225L260.971 280.935L260.971 280.935V280.922C260.971 280.435 260.886 280.023 260.706 279.784C260.52 279.535 260.183 279.391 259.739 279.302C259.285 279.211 258.578 279.211 257.584 279.211L257.541 279.211C257.304 279.211 257.098 279.222 256.931 279.232C256.886 279.235 256.838 279.235 256.781 279.236C256.766 279.236 256.751 279.236 256.735 279.236C256.663 279.237 256.577 279.239 256.493 279.249C256.332 279.269 256.102 279.331 255.986 279.564C255.947 279.641 255.921 279.745 255.904 279.85C255.885 279.959 255.874 280.089 255.873 280.229L255.794 282.074C255.738 283.386 256.786 284.481 258.1 284.481C258.587 284.481 259.361 284.407 260.34 284.297L260.315 284.416C260.234 284.807 259.884 285.085 259.483 285.076C258.459 285.055 257.804 285.055 257.498 285.055C256.389 285.055 255.646 286.035 255.623 287.073L255.573 289.382L255.572 289.382V289.387C255.572 289.507 255.576 289.619 255.583 289.723C255.596 289.922 255.638 290.152 255.738 290.349C255.84 290.551 256.014 290.738 256.289 290.793C256.529 290.841 256.933 290.841 257.417 290.841L257.455 290.841C258.566 290.841 259.46 290.799 259.971 290.66C260.482 290.52 260.89 290.277 261.148 289.864C261.33 289.573 261.447 289.171 261.547 288.674C261.598 288.416 261.804 288.226 262.051 288.202L262.151 288.193C261.957 289.211 261.766 290.271 261.644 291.369C260.813 291.344 260.05 291.319 259.355 291.296C257.696 291.242 256.421 291.2 255.522 291.2C254.738 291.2 253.956 291.253 253.217 291.339C253.071 291.356 252.954 291.232 252.972 291.097C252.984 291.009 253.057 290.926 253.167 290.902C253.61 290.803 253.973 290.645 254.194 290.424C254.482 290.136 254.611 289.621 254.611 289.001C254.611 289.001 254.611 289.001 254.611 289.001L254.654 280.365ZM262.281 288.18C262.281 288.18 262.281 288.18 262.281 288.18L262.281 288.18Z" stroke="white" stroke-width="0.5"/>
<path d="M270.515 290.422L270.525 290.412L270.533 290.401C270.757 290.121 270.889 289.623 270.889 288.999C270.889 288.999 270.889 288.999 270.889 288.999L270.932 280.363L270.932 280.363V280.361C270.932 280.281 270.93 280.203 270.927 280.129C270.903 279.601 270.532 279.037 269.908 279.037C269.826 279.037 269.735 279.05 269.666 279.06C269.663 279.06 269.661 279.061 269.658 279.061C269.578 279.073 269.522 279.08 269.479 279.08H269.478H269.477H269.477H269.476H269.476H269.475H269.475H269.474H269.473H269.473H269.472H269.472H269.471H269.471H269.47H269.469H269.469H269.468H269.468H269.467H269.467H269.466H269.465H269.465H269.464H269.464H269.463H269.463H269.462H269.462H269.461H269.46H269.46H269.459H269.459H269.458H269.458H269.457H269.457H269.456H269.455H269.455H269.454H269.454H269.453H269.453H269.452H269.452H269.451H269.45H269.45H269.449H269.449H269.448H269.448H269.447H269.447H269.446H269.446H269.445H269.444H269.444H269.443H269.443H269.442H269.442H269.441H269.441H269.44H269.44H269.439H269.439H269.438H269.437H269.437H269.436H269.436H269.435H269.435H269.434H269.434H269.433H269.433H269.432H269.432H269.431H269.431H269.43H269.43H269.429H269.428H269.428H269.427H269.427H269.426H269.426H269.425H269.425H269.424H269.424H269.423H269.423H269.422H269.422H269.421H269.421H269.421L269.422 279.073C269.467 278.836 269.725 278.633 269.999 278.634C270.074 278.635 270.154 278.635 270.24 278.635C270.678 278.678 271.157 278.678 271.62 278.678H271.627C271.796 278.678 271.993 278.668 272.192 278.658C272.205 278.657 272.218 278.657 272.23 278.656C272.446 278.645 272.666 278.635 272.873 278.635H272.885L272.896 278.634C273.007 278.624 273.112 278.613 273.21 278.603C273.258 278.597 273.348 278.621 273.433 278.691C273.519 278.762 273.54 278.83 273.539 278.857C273.537 278.894 273.506 278.94 273.444 278.951C273.103 279.012 272.833 279.114 272.692 279.208L272.691 279.208L272.68 279.216C272.468 279.375 272.346 279.551 272.287 279.785C272.238 279.983 272.194 280.393 272.151 281.031C272.065 282.198 272.022 283.535 271.979 285.038C271.936 286.546 271.936 287.838 271.936 288.998V288.999C271.936 289.474 271.977 289.903 272.083 290.166C272.194 290.445 272.421 290.604 272.653 290.693C272.881 290.781 273.136 290.811 273.352 290.824C273.514 290.833 273.698 290.839 273.905 290.839C274.73 290.839 275.404 290.753 275.828 290.612C276.337 290.458 276.641 290.143 276.878 289.669L276.883 289.66L276.887 289.65C277.028 289.299 277.165 288.82 277.299 288.222C277.349 288.002 277.53 287.841 277.747 287.82L277.863 287.809C277.802 288.082 277.707 288.515 277.612 289.085C277.491 289.771 277.407 290.566 277.328 291.324C277.325 291.349 277.323 291.375 277.32 291.4C277.14 291.388 276.914 291.379 276.648 291.369C276.581 291.366 276.513 291.364 276.441 291.361C276.046 291.345 275.566 291.324 274.996 291.285L274.996 291.285L274.988 291.284C273.737 291.241 272.745 291.241 271.929 291.241H271.928C271.273 291.241 270.663 291.285 270.145 291.328C270.011 291.339 269.888 291.35 269.776 291.362C269.703 291.369 269.618 291.341 269.55 291.281C269.483 291.221 269.452 291.148 269.455 291.085C269.459 291.003 269.523 290.917 269.634 290.888C270.025 290.784 270.311 290.626 270.515 290.422Z" stroke="white" stroke-width="0.5"/>
<path d="M286.268 288.913H286.268V288.917C286.268 289.094 286.273 289.253 286.281 289.395C286.294 289.616 286.319 289.887 286.403 290.128C286.488 290.373 286.645 290.621 286.941 290.739L286.956 290.745L286.973 290.749C287.137 290.79 287.415 290.827 287.778 290.839L287.777 290.841C287.733 291.06 287.494 291.247 287.237 291.246C287.134 291.245 287.023 291.245 286.905 291.245H286.905H286.902H286.899H286.896H286.893H286.891H286.888H286.885H286.882H286.88H286.877H286.874H286.871H286.868H286.866H286.863H286.86H286.857H286.855H286.852H286.849H286.846H286.843H286.841H286.838H286.835H286.832H286.829H286.827H286.824H286.821H286.818H286.815H286.813H286.81H286.807H286.804H286.801H286.799H286.796H286.793H286.79H286.787H286.785H286.782H286.779H286.776H286.773H286.77H286.768H286.765H286.762H286.759H286.756H286.754H286.751H286.748H286.745H286.742H286.739H286.737H286.734H286.731H286.728H286.725H286.722H286.72H286.717H286.714H286.711H286.708H286.705H286.703H286.7H286.697H286.694H286.691H286.688H286.686H286.683H286.68H286.677H286.674H286.671H286.668H286.666H286.663H286.66H286.657H286.654H286.651H286.648H286.646H286.643H286.64H286.637H286.634H286.631H286.628H286.626H286.623H286.62H286.617H286.614H286.611H286.608H286.605H286.603H286.6H286.597H286.594H286.591H286.588H286.585H286.582H286.58H286.577H286.574H286.571H286.568H286.565H286.562H286.559H286.556H286.554H286.551H286.548H286.545H286.542H286.539H286.536H286.533H286.53H286.527H286.525H286.522H286.519H286.516H286.513H286.51H286.507H286.504H286.501H286.498H286.496H286.493H286.49H286.487H286.484H286.481H286.478H286.475H286.472H286.469H286.466H286.463H286.461H286.458H286.455H286.452H286.449H286.446H286.443H286.44H286.437H286.434H286.431H286.428H286.425H286.422H286.419H286.417H286.414H286.411H286.408H286.405H286.402H286.399H286.396H286.393H286.39H286.387H286.384H286.381H286.378H286.375H286.372H286.369H286.366H286.364H286.361H286.358H286.355H286.352H286.349H286.346H286.343H286.34H286.337H286.334H286.331H286.328H286.325H286.322H286.319H286.316H286.313H286.31H286.307H286.304H286.301H286.298H286.295H286.292H286.289H286.286H286.283H286.28H286.277H286.274H286.271H286.268H286.265H286.262H286.259H286.256H286.253H286.25H286.247H286.245H286.242H286.239H286.236H286.233H286.23H286.227H286.224H286.221H286.218H286.215H286.211H286.208H286.205H286.202H286.199H286.196H286.193H286.19H286.187H286.184H286.181H286.178H286.175H286.172H286.169H286.166H286.163H286.16H286.157H286.154H286.151H286.148H286.145H286.142H286.139H286.136H286.133H286.13H286.127H286.124H286.121H286.118H286.115H286.112H286.109H286.106H286.103H286.1H286.097H286.094H286.09H286.087H286.084H286.081H286.078H286.075H286.072H286.069H286.066H286.063H286.06H286.057H286.054H286.051H286.048H286.045H286.042H286.039H286.036H286.032H286.029H286.026H286.023H286.02H286.017H286.014H286.011H286.008H286.005H286.002H285.999H285.996H285.993H285.989H285.986H285.983H285.98H285.977H285.974H285.971H285.968H285.965H285.962H285.959H285.956H285.952H285.949H285.946H285.943H285.94H285.937H285.934H285.931H285.928H285.925H285.922H285.918H285.915H285.912H285.909H285.906H285.903H285.9H285.897H285.894H285.89H285.887H285.884H285.881H285.878H285.875H285.872H285.869H285.866H285.862H285.859H285.856H285.853H285.85H285.847H285.844H285.841H285.837H285.834H285.831H285.828H285.825H285.822H285.819H285.816H285.812H285.809H285.806H285.803H285.8H285.797H285.794H285.79H285.787H285.784H285.781H285.778H285.775H285.772H285.768H285.765H285.762H285.759H285.756H285.753H285.75H285.746H285.743H285.74H285.737H285.734H285.731H285.727H285.724H285.721H285.718H285.715H285.712H285.709H285.705H285.702H285.699H285.696H285.693H285.689H285.686H285.683H285.68H285.677H285.674H285.67H285.667H285.664H285.661H285.658H285.655H285.651H285.648H285.645H285.642H285.639H285.635H285.632H285.629H285.626H285.623H285.619H285.616H285.613H285.61H285.607H285.603H285.6H285.597H285.594H285.591H285.587H285.584H285.581H285.578H285.575H285.571H285.568H285.565H285.562H285.559H285.555H285.552H285.549H285.546H285.543H285.539H285.536H285.533H285.53H285.526H285.523H285.52H285.517H285.514H285.51H285.507H285.504H285.501H285.497H285.494H285.491H285.488H285.484H285.481H285.478H285.475H285.472H285.468H285.465H285.462H285.459H285.455H285.452H285.449H285.446H285.442H285.439H285.436H285.433H285.429H285.426H285.423H285.42H285.416H285.413H285.41H285.407H285.403H285.4H285.397H285.394H285.39H285.387H285.384H285.38H285.377H285.374H285.371H285.367H285.364H285.361H285.358H285.355H285.352H285.349H285.346H285.344H285.341H285.338H285.335H285.333H285.33H285.327H285.324H285.322H285.319H285.316H285.313H285.31H285.308H285.305H285.302H285.299H285.297H285.294H285.291H285.288H285.286H285.283H285.28H285.277H285.275H285.272H285.269H285.266H285.263H285.261H285.258H285.255H285.252H285.25H285.247H285.244H285.241H285.239H285.236H285.233H285.23H285.227H285.225H285.222H285.219H285.216H285.214H285.211H285.208H285.205H285.203H285.2H285.197H285.194H285.192H285.189H285.186H285.183H285.181H285.178H285.175H285.172H285.17H285.167H285.164H285.161H285.159H285.156H285.153H285.15H285.147H285.145H285.142H285.139H285.136H285.134H285.131H285.128H285.125H285.123H285.12H285.117H285.114H285.112H285.109H285.106H285.104H285.101H285.098H285.095H285.093H285.09H285.087H285.084H285.082H285.079H285.076H285.073H285.071H285.068H285.065H285.062H285.06H285.057H285.054H285.051H285.049H285.046H285.043H285.041H285.038H285.035H285.032H285.03H285.027H285.024H285.021H285.019H285.016H285.013H285.011H285.008H285.005H285.002H285H284.997H284.994H284.991H284.989H284.986H284.983H284.981H284.978H284.975H284.972H284.97H284.967H284.964H284.962H284.959H284.956H284.953H284.951H284.948H284.945H284.943H284.94H284.937H284.935H284.932H284.929H284.926H284.924H284.921H284.918H284.916H284.913H284.91H284.908H284.905H284.902H284.9H284.897H284.894H284.891H284.889H284.886H284.883H284.881H284.878H284.875H284.873H284.87H284.867H284.865H284.862H284.859H284.857H284.854H284.851H284.849H284.846H284.843H284.841H284.838H284.835H284.833H284.83H284.827H284.825H284.822H284.819H284.817H284.814H284.811H284.809H284.806H284.803H284.801H284.798H284.795H284.793H284.79H284.787H284.785H284.782H284.78H284.777H284.774H284.772H284.769H284.766H284.764H284.761H284.758H284.756H284.753H284.751H284.748H284.745H284.743H284.74H284.737H284.735H284.732H284.73H284.727H284.724H284.722H284.719H284.717H284.714H284.711H284.709H284.706H284.704H284.701H284.698H284.696H284.693H284.691H284.688H284.685H284.683H284.68H284.678H284.675H284.672H284.67H284.667H284.665H284.662H284.659H284.657H284.654H284.652H284.649H284.647H284.644H284.641H284.639H284.636H284.634H284.631H284.629H284.626H284.624H284.621H284.618H284.616H284.613H284.611H284.608H284.606H284.603H284.601H284.598H284.596H284.593H284.59H284.588H284.585H284.583H284.58H284.578H284.575H284.573H284.57H284.568H284.565H284.563H284.56H284.558H284.555H284.553H284.55H284.548H284.545H284.543H284.54H284.538H284.535H284.533H284.53H284.528H284.525H284.523H284.52H284.518H284.515H284.513H284.51H284.508H284.505H284.503H284.5H284.498H284.495H284.493H284.49H284.488H284.485H284.483H284.481H284.478H284.476H284.473H284.471H284.468H284.466H284.463H284.461H284.459H284.456H284.454H284.451H284.449H284.446H284.444H284.441H284.439H284.437H284.434H284.432H284.429H284.427H284.425H284.422H284.42H284.417H284.415H284.412H284.41H284.408H284.405H284.403H284.401H284.398H284.396H284.393H284.391H284.389H284.386H284.384H284.381H284.379H284.377H284.374H284.372H284.37H284.367H284.365H284.363H284.36H284.358H284.355H284.353H284.351H284.348H284.346H284.344H284.341H284.339H284.337H284.334H284.332H284.33H284.327H284.325H284.323H284.32H284.318H284.316H284.313H284.311H284.309H284.307H284.304H284.302H284.3H284.297H284.295H284.293H284.29H284.288H284.286H284.284H284.281H284.279H284.277H284.275H284.272H284.27H284.268H284.265H284.263H284.261H284.259H284.256H284.254H284.252H284.25H284.247H284.245H284.243H284.241H284.239H284.236H284.234H284.232H284.23H284.227H284.225H284.223H284.221H284.219H284.216H284.214H284.212H284.21H284.208H284.205H284.203H284.201H284.199H284.197H284.194H284.192H284.19H284.188H284.186H284.184H284.181H284.179H284.177H284.175H284.173H284.171H284.168H284.166H284.164H284.162H284.16H284.158H284.156H284.153H284.151H284.149H284.147H284.145H284.143H284.141H284.139H284.136H284.134H284.132H284.13H284.128H284.126H284.124H284.122H284.12H284.118H284.116H284.113H284.111H284.109H284.107H284.105H284.103H284.101H284.099H284.097H284.095H284.093H284.091H284.089H284.087H284.085H284.083H284.081H284.079H284.076H284.074H284.072H284.07H284.068H284.053L284.037 291.247C283.991 291.253 283.946 291.258 283.902 291.262L283.927 291.511L283.902 291.262C283.781 291.274 283.661 291.161 283.689 291.002C283.708 290.9 283.796 290.811 283.92 290.789C284.192 290.741 284.422 290.678 284.591 290.61C284.843 290.509 285.083 290.341 285.203 290.041C285.306 289.782 285.35 289.444 285.35 289.003C285.35 289.003 285.35 289.003 285.35 289.003L285.393 280.367H285.393V280.365C285.393 280.284 285.391 280.207 285.388 280.133C285.364 279.605 284.993 279.041 284.369 279.041C284.287 279.041 284.196 279.054 284.127 279.064C284.124 279.064 284.122 279.065 284.119 279.065C284.039 279.077 283.983 279.084 283.939 279.084H283.939H283.938H283.938H283.937H283.937H283.936H283.935H283.935H283.934H283.934H283.933H283.933H283.932H283.931H283.931H283.93H283.93H283.929H283.929H283.928H283.928H283.927H283.926H283.926H283.925H283.925H283.924H283.924H283.923H283.922H283.922H283.921H283.921H283.92H283.92H283.919H283.919H283.918H283.917H283.917H283.916H283.916H283.915H283.915H283.914H283.914H283.913H283.913H283.912H283.911H283.911H283.91H283.91H283.909H283.909H283.908H283.908H283.907H283.907H283.906H283.905H283.905H283.904H283.904H283.903H283.903H283.902H283.902H283.901H283.901H283.9H283.9H283.899H283.898H283.898H283.897H283.897H283.896H283.896H283.895H283.895H283.894H283.894H283.893H283.893H283.892H283.892H283.891H283.89H283.89H283.889H283.889H283.888H283.888H283.887H283.887H283.886H283.886H283.885H283.885H283.884H283.884H283.883H283.883H283.882H283.882H283.881L283.883 279.076C283.928 278.84 284.186 278.637 284.46 278.638C284.535 278.639 284.615 278.639 284.701 278.639C285.139 278.682 285.617 278.682 286.039 278.682H286.045H286.049C286.52 278.682 287.001 278.682 287.527 278.638C288.032 278.596 288.368 278.596 288.58 278.596H288.58C289.789 278.596 290.762 278.888 291.437 279.404C292.103 279.914 292.456 280.613 292.456 281.526C292.456 282.327 292.218 283.002 291.695 283.645L291.695 283.645L291.689 283.653C291.239 284.254 290.84 284.977 290.656 285.722C290.471 286.468 290.499 287.254 290.932 287.945L291.677 289.135C292.117 289.838 292.523 290.295 292.9 290.578L292.899 290.578L292.911 290.586C293.289 290.838 293.736 290.977 294.214 291.008L294.19 291.101C294.158 291.228 294.052 291.323 293.923 291.339L292.648 291.503C292.397 291.498 292.115 291.37 291.755 291.05C291.397 290.732 291.069 290.286 290.731 289.696C290.731 289.695 290.731 289.695 290.731 289.695L288.812 286.299C288.573 285.877 288.126 285.616 287.641 285.616C286.905 285.616 286.306 286.207 286.296 286.942L286.268 288.913ZM289.455 284.891L289.456 284.891L289.466 284.886C289.944 284.647 290.315 284.27 290.67 283.783C291.063 283.288 291.194 282.619 291.194 281.869C291.194 280.902 290.856 280.143 290.15 279.636C289.459 279.14 288.452 278.912 287.162 278.912C286.771 278.912 286.57 279.257 286.569 279.556L286.569 279.627C286.473 281.186 286.401 282.512 286.37 283.621C286.35 284.367 286.923 284.982 287.658 285.041L288.084 285.075C288.471 285.106 289.066 285.064 289.455 284.891Z" stroke="white" stroke-width="0.5"/>
<path d="M299.717 279.169L299.71 279.164L299.702 279.16C299.401 278.988 299.04 278.898 298.608 278.848L298.608 278.844C298.64 278.645 298.857 278.466 299.096 278.467C299.162 278.467 299.233 278.467 299.308 278.467C299.747 278.51 300.225 278.51 300.688 278.51H300.695C300.923 278.51 301.169 278.5 301.423 278.49C301.439 278.489 301.456 278.489 301.473 278.488C301.747 278.477 302.033 278.467 302.328 278.467H302.337L302.345 278.466C302.779 278.437 303.123 278.408 303.359 278.378C303.332 278.568 303.171 278.734 302.947 278.778C302.643 278.837 302.415 278.913 302.251 278.967L302.249 278.968L302.242 278.97L302.236 278.973C302.083 279.034 301.962 279.132 301.883 279.265C301.806 279.394 301.778 279.538 301.778 279.678C301.778 279.753 301.795 279.842 301.816 279.93C301.839 280.022 301.872 280.134 301.913 280.26C301.996 280.514 302.116 280.841 302.267 281.229L302.267 281.23L302.27 281.236C302.614 282.053 302.96 282.832 303.351 283.571C303.678 284.266 303.928 284.767 304.062 285.036C304.117 285.146 304.228 285.213 304.349 285.213C304.467 285.213 304.576 285.148 304.631 285.044L306.931 280.743C307.151 280.346 307.305 279.957 307.305 279.592C307.305 279.295 307.113 279.087 306.852 278.96C306.628 278.853 306.326 278.787 305.957 278.755L305.962 278.721C305.997 278.504 306.177 278.364 306.385 278.384C306.512 278.396 306.657 278.409 306.82 278.423C307.346 278.467 307.784 278.467 308.085 278.467H308.087H308.09C308.433 278.467 308.787 278.467 309.229 278.423C309.499 278.396 309.698 278.386 309.838 278.383L309.819 278.494C309.785 278.684 309.632 278.845 309.417 278.909C309.168 278.983 308.963 279.068 308.791 279.153L308.783 279.158L308.774 279.163C308.536 279.306 308.248 279.544 308.05 279.84C308.031 279.869 308.009 279.901 307.986 279.936C307.809 280.2 307.532 280.611 307.221 281.193L307.221 281.193L307.218 281.199C307.164 281.308 307.099 281.415 307.027 281.53C307.016 281.548 307.005 281.566 306.993 281.584C306.933 281.681 306.869 281.783 306.811 281.887L304.99 285.14C304.99 285.14 304.99 285.141 304.99 285.141C304.801 285.472 304.662 285.891 304.615 286.311C304.571 286.707 304.528 287.446 304.485 288.477L304.485 288.477V288.487V288.917C304.485 289.2 304.496 289.45 304.525 289.656C304.552 289.848 304.6 290.035 304.699 290.173C304.899 290.495 305.271 290.585 305.637 290.585H305.638H305.639H305.64H305.642H305.643H305.644H305.645H305.646H305.647H305.648H305.649H305.65H305.651H305.652H305.654H305.655H305.656H305.657H305.658H305.659H305.66H305.661H305.662H305.663H305.664H305.666H305.667H305.668H305.669H305.67H305.671H305.672H305.673H305.674H305.675H305.676H305.678H305.679H305.68H305.681H305.682H305.683H305.684H305.685H305.686H305.687H305.688H305.689H305.691H305.692H305.693H305.694H305.695H305.696H305.697H305.698H305.699H305.7H305.701H305.703H305.704H305.705H305.706H305.707H305.708H305.709H305.71H305.711H305.712H305.713H305.714H305.716H305.717H305.718H305.719H305.72H305.721H305.722H305.723H305.724H305.725H305.726H305.727H305.729H305.73H305.731H305.732H305.733H305.734H305.735H305.736H305.737H305.738H305.739H305.74H305.742H305.743H305.744H305.745H305.746H305.747H305.748H305.749H305.75H305.751H305.752H305.753H305.755H305.756H305.757H305.758H305.759H305.76H305.761H305.762H305.763H305.764H305.765H305.766H305.768H305.769H305.77H305.771H305.772H305.773H305.774H305.775H305.776H305.777H305.778H305.779H305.78H305.782H305.783H305.784H305.785H305.786H305.787H305.788H305.789H305.79H305.791H305.792H305.793H305.794H305.796H305.797H305.798H305.799H305.8H305.801H305.802H305.803H305.804H305.805H305.806H305.807H305.808H305.81H305.811H305.812H305.813H305.814H305.815H305.816H305.817H305.818H305.819H305.82H305.821H305.822H305.823H305.825H305.826H305.827H305.828H305.829H305.83H305.831H305.832H305.833H305.834H305.835H305.836H305.837H305.838H305.839H305.841H305.842H305.843H305.844H305.845H305.846H305.847H305.848H305.849H305.85H305.851H305.852H305.853H305.854H305.855H305.857H305.858H305.859H305.86H305.861H305.862H305.863H305.864H305.865H305.866H305.867H305.868H305.869H305.87H305.871H305.872H305.874H305.875H305.876H305.877H305.878H305.879H305.88H305.881H305.882H305.883H305.884H305.885H305.886H305.887H305.888H305.889H305.89H305.891H305.893H305.894H305.895H305.896H305.897H305.898H305.899H305.9H305.901H305.902H305.903H305.904H305.905H305.906H305.907H305.908H305.909H305.91H305.911H305.913H305.914H305.915H305.916H305.917H305.918H305.919H305.92H305.921H305.922H305.923H305.924H305.925H305.926H305.927H305.928H305.929H305.93H305.931H305.932H305.933H305.934H305.935H305.937H305.938H305.939H305.94H305.941H305.942H305.943H305.944H305.945H305.946H305.947H305.948H305.949H305.95H305.951H305.952H305.953H305.954H305.955H305.956H305.957H305.958H305.959H305.96H305.961H305.962H305.963H305.964H305.966H305.967H305.968H305.969H305.97H305.971H305.972H305.973H305.974H305.975H305.976H305.977H305.978H305.979H305.98H305.981H305.982H305.983H305.984H305.985H305.986H305.987H305.988H305.989H305.99H305.991H305.992H305.993H305.994H305.995H305.996H305.997H305.998H305.999H306H306.001H306.002H306.003H306.004H306.005H306.006H306.007H306.008H306.009H306.01H306.011H306.012H306.013H306.015H306.016H306.017H306.018H306.019H306.02H306.021H306.022H306.023H306.024H306.025H306.026H306.027H306.028H306.029H306.03H306.031H306.032H306.033H306.034H306.035H306.036H306.037H306.038H306.039H306.04H306.041H306.042H306.043H306.044H306.045H306.046H306.047H306.048H306.049H306.05H306.051H306.052H306.053H306.054H306.055H306.056H306.057H306.058H306.059H306.06H306.061H306.061H306.062H306.063H306.064H306.065H306.066H306.067H306.068H306.069H306.07H306.071H306.072H306.073H306.074H306.075H306.076H306.077H306.078H306.079H306.08H306.081H306.082H306.083H306.084H306.085H306.086H306.087H306.088H306.089H306.09H306.091H306.092H306.093H306.094H306.095H306.096H306.097H306.098H306.099H306.1H306.101H306.102H306.103H306.104H306.104H306.105H306.106H306.107H306.108H306.109H306.11H306.111H306.112H306.113H306.114H306.115H306.116H306.117H306.118H306.119H306.12H306.121H306.122H306.123H306.124H306.125H306.126H306.127H306.127H306.128H306.129H306.13H306.131H306.132H306.133H306.134H306.135H306.136H306.137H306.138H306.139H306.14H306.141H306.142H306.143H306.144H306.145H306.145H306.146H306.147H306.148H306.149H306.15H306.151H306.152H306.153H306.154H306.155H306.156H306.157H306.158H306.159H306.159H306.16H306.161H306.162H306.163H306.164H306.165H306.166H306.167C306.237 290.585 306.301 290.575 306.355 290.565C306.379 290.561 306.402 290.557 306.425 290.554L306.423 290.566C306.376 290.823 306.112 291.033 305.82 291.031C305.711 291.03 305.593 291.03 305.466 291.03H305.465H305.462H305.459H305.456H305.453H305.45H305.447H305.444H305.441H305.438H305.435H305.432H305.429H305.426H305.423H305.42H305.417H305.414H305.411H305.408H305.405H305.402H305.399H305.396H305.393H305.39H305.387H305.384H305.381H305.378H305.375H305.372H305.369H305.366H305.363H305.36H305.357H305.354H305.351H305.348H305.345H305.342H305.339H305.336H305.333H305.33H305.327H305.324H305.321H305.318H305.315H305.312H305.309H305.306H305.304H305.301H305.298H305.295H305.292H305.289H305.286H305.283H305.28H305.277H305.274H305.271H305.268H305.265H305.262H305.259H305.256H305.253H305.25H305.247H305.244H305.241H305.238H305.235H305.232H305.229H305.226H305.223H305.221H305.218H305.215H305.212H305.209H305.206H305.203H305.2H305.197H305.194H305.191H305.188H305.185H305.182H305.179H305.176H305.173H305.17H305.167H305.165H305.162H305.159H305.156H305.153H305.15H305.147H305.144H305.141H305.138H305.135H305.132H305.129H305.126H305.123H305.12H305.118H305.115H305.112H305.109H305.106H305.103H305.1H305.097H305.094H305.091H305.088H305.085H305.082H305.079H305.077H305.074H305.071H305.068H305.065H305.062H305.059H305.056H305.053H305.05H305.047H305.044H305.041H305.039H305.036H305.033H305.03H305.027H305.024H305.021H305.018H305.015H305.012H305.009H305.006H305.004H305.001H304.998H304.995H304.992H304.989H304.986H304.983H304.98H304.977H304.974H304.971H304.969H304.966H304.963H304.96H304.957H304.954H304.951H304.948H304.945H304.942H304.939H304.937H304.934H304.931H304.928H304.925H304.922H304.919H304.916H304.913H304.91H304.908H304.905H304.902H304.899H304.896H304.893H304.89H304.887H304.884H304.881H304.879H304.876H304.873H304.87H304.867H304.864H304.861H304.858H304.855H304.852H304.849H304.847H304.844H304.841H304.838H304.835H304.832H304.829H304.826H304.823H304.821H304.818H304.815H304.812H304.809H304.806H304.803H304.8H304.797H304.794H304.792H304.789H304.786H304.783H304.78H304.777H304.774H304.771H304.768H304.765H304.763H304.76H304.757H304.754H304.751H304.748H304.745H304.742H304.739H304.737H304.734H304.731H304.728H304.725H304.722H304.719H304.716H304.713H304.71H304.708H304.705H304.702H304.699H304.696H304.693H304.69H304.687H304.684H304.681H304.679H304.676H304.673H304.67H304.667H304.664H304.661H304.658H304.655H304.653H304.65H304.647H304.644H304.641H304.638H304.635H304.632H304.629H304.626H304.624H304.621H304.618H304.615H304.612H304.609H304.606H304.603H304.6H304.597H304.595H304.592H304.589H304.586H304.583H304.58H304.577H304.574H304.571H304.568H304.566H304.563H304.56H304.557H304.554H304.551H304.548H304.545H304.542H304.539H304.537H304.534H304.531H304.528H304.525H304.522H304.519H304.516H304.513H304.51H304.508H304.505H304.502H304.499H304.496H304.493H304.49H304.487H304.484H304.481H304.478H304.476H304.473H304.47H304.467H304.464H304.461H304.458H304.455H304.452H304.449H304.446H304.444H304.441H304.438H304.435H304.432H304.429H304.426H304.423H304.42H304.417H304.414H304.411H304.409H304.406H304.403H304.4H304.397H304.394H304.391H304.388H304.385H304.382H304.379H304.376H304.374H304.371H304.368H304.365H304.362H304.359H304.356H304.353H304.35H304.347H304.344H304.341H304.338H304.336H304.333H304.33H304.327H304.324H304.321H304.318H304.315H304.312H304.309H304.306H304.303H304.3H304.297H304.294H304.292H304.289H304.286H304.283H304.28H304.277H304.274H304.271H304.268H304.265H304.262H304.259H304.256H304.253H304.25H304.247H304.244H304.242H304.239H304.236H304.233H304.23H304.227H304.224H304.221H304.218H304.215H304.212H304.209H304.206H304.203H304.2H304.197H304.194H304.191H304.188H304.185H304.182H304.18H304.177H304.174H304.171H304.168H304.165H304.162H304.159H304.156H304.153H304.15H304.147H304.144H304.141H304.138H304.135H304.132H304.129H304.126H304.123H304.12H304.117H304.114H304.111H304.108H304.105H304.102H304.099H304.096H304.093H304.09H304.087H304.084H304.081H304.078H304.075H304.072H304.069H304.067H304.064H304.061H304.058H304.055H304.052H304.049H304.046H304.043H304.04H304.037H304.034H304.031H304.028H304.025H304.022H304.019H304.016H304.013H304.01H304.007H304.004H304.001H303.998H303.995H303.991H303.988H303.985H303.982H303.979H303.976H303.973H303.97H303.967H303.964H303.961C303.52 291.03 303.038 291.074 302.57 291.117L302.564 291.117L302.552 291.118L302.542 291.12C302.415 291.143 302.298 291.163 302.191 291.181C302.164 291.185 302.12 291.175 302.08 291.132C302.041 291.089 302.036 291.048 302.043 291.025C302.05 291.001 302.072 290.977 302.107 290.969C302.417 290.899 302.672 290.812 302.883 290.719L302.782 290.49L302.883 290.719C303.003 290.666 303.123 290.593 303.227 290.492C303.4 290.325 303.516 290.139 303.597 289.898C303.696 289.6 303.739 289.135 303.739 288.573V287.585C303.739 286.778 303.498 285.991 303.141 285.291C303.117 285.244 303.092 285.197 303.066 285.149L301.222 281.375C300.88 280.648 300.577 280.126 300.396 279.852C300.236 279.541 299.977 279.342 299.717 279.169Z" stroke="white" stroke-width="0.5"/>
</svg>
