<svg width="500" height="500" viewBox="0 0 500 500" fill="none" xmlns="http://www.w3.org/2000/svg">
<rect x="0.5" y="0.5" width="499" height="499" rx="49.5" stroke="white"/>
<mask id="path-2-outside-1_238_65" maskUnits="userSpaceOnUse" x="50" y="210.273" width="400" height="63" fill="black">
<rect fill="white" x="50" y="210.273" width="400" height="63"/>
<path d="M59.9951 258.229C61.0309 258.832 62.1872 259.362 63.4639 259.819C64.7406 260.277 66.0534 260.662 67.4023 260.976C68.7754 261.265 70.1484 261.493 71.5215 261.662C72.9186 261.807 74.2435 261.879 75.4961 261.879C78.2904 261.879 80.8076 261.518 83.0479 260.795C85.3122 260.072 87.2633 259.049 88.9014 257.724C90.5394 256.399 91.8402 254.821 92.8037 252.99C93.7913 251.135 94.4056 249.088 94.6465 246.848C93.3939 247.835 92.0088 248.69 90.4912 249.413C88.9736 250.136 87.3597 250.738 85.6494 251.22C83.9632 251.677 82.2168 252.027 80.4102 252.268C78.6276 252.484 76.833 252.593 75.0264 252.593C71.5094 252.593 68.3057 252.171 65.415 251.328C62.5485 250.485 60.0915 249.269 58.0439 247.679C55.9964 246.089 54.4066 244.162 53.2744 241.897C52.1663 239.609 51.6123 237.02 51.6123 234.129C51.6123 231.286 52.1663 228.649 53.2744 226.216C54.4066 223.783 56.0687 221.675 58.2607 219.893C60.4528 218.086 63.1748 216.677 66.4268 215.665C69.6787 214.629 73.4486 214.111 77.7363 214.111C81.9036 214.111 85.7096 214.641 89.1543 215.701C92.599 216.761 95.5498 218.411 98.0068 220.651C100.464 222.892 102.367 225.746 103.716 229.215C105.089 232.66 105.775 236.779 105.775 241.572C105.775 246.703 105.005 251.184 103.463 255.014C101.945 258.82 99.8496 261.987 97.1758 264.517C94.526 267.046 91.3945 268.937 87.7812 270.189C84.168 271.442 80.2656 272.068 76.0742 272.068C74.3158 272.068 72.485 271.96 70.582 271.743C68.7031 271.526 66.8363 271.201 64.9814 270.768C63.1266 270.334 61.332 269.792 59.5977 269.142C57.8874 268.491 56.3216 267.744 54.9004 266.901L59.9951 258.229ZM63.0664 233.948C63.0664 235.129 63.3193 236.237 63.8252 237.272C64.3311 238.308 65.1139 239.212 66.1738 239.982C67.2578 240.729 68.6429 241.331 70.3291 241.789C72.0153 242.223 74.0508 242.439 76.4355 242.439C78.4349 242.439 80.3258 242.283 82.1084 241.97C83.891 241.657 85.541 241.223 87.0586 240.669C88.5762 240.115 89.9492 239.465 91.1777 238.718C92.4303 237.971 93.5023 237.152 94.3936 236.261C93.8154 232.31 92.0811 229.335 89.1904 227.336C86.2998 225.312 82.5059 224.301 77.8086 224.301C75.4479 224.301 73.3522 224.542 71.5215 225.023C69.6908 225.505 68.1491 226.18 66.8965 227.047C65.6439 227.89 64.6924 228.902 64.042 230.082C63.3916 231.262 63.0664 232.551 63.0664 233.948ZM127.708 258.229C128.744 258.832 129.9 259.362 131.177 259.819C132.453 260.277 133.766 260.662 135.115 260.976C136.488 261.265 137.861 261.493 139.234 261.662C140.632 261.807 141.956 261.879 143.209 261.879C146.003 261.879 148.521 261.518 150.761 260.795C153.025 260.072 154.976 259.049 156.614 257.724C158.252 256.399 159.553 254.821 160.517 252.99C161.504 251.135 162.118 249.088 162.359 246.848C161.107 247.835 159.722 248.69 158.204 249.413C156.687 250.136 155.073 250.738 153.362 251.22C151.676 251.677 149.93 252.027 148.123 252.268C146.34 252.484 144.546 252.593 142.739 252.593C139.222 252.593 136.019 252.171 133.128 251.328C130.261 250.485 127.804 249.269 125.757 247.679C123.709 246.089 122.119 244.162 120.987 241.897C119.879 239.609 119.325 237.02 119.325 234.129C119.325 231.286 119.879 228.649 120.987 226.216C122.119 223.783 123.782 221.675 125.974 219.893C128.166 218.086 130.888 216.677 134.14 215.665C137.392 214.629 141.161 214.111 145.449 214.111C149.617 214.111 153.423 214.641 156.867 215.701C160.312 216.761 163.263 218.411 165.72 220.651C168.177 222.892 170.08 225.746 171.429 229.215C172.802 232.66 173.488 236.779 173.488 241.572C173.488 246.703 172.717 251.184 171.176 255.014C169.658 258.82 167.562 261.987 164.889 264.517C162.239 267.046 159.107 268.937 155.494 270.189C151.881 271.442 147.979 272.068 143.787 272.068C142.029 272.068 140.198 271.96 138.295 271.743C136.416 271.526 134.549 271.201 132.694 270.768C130.84 270.334 129.045 269.792 127.311 269.142C125.6 268.491 124.035 267.744 122.613 266.901L127.708 258.229ZM130.779 233.948C130.779 235.129 131.032 236.237 131.538 237.272C132.044 238.308 132.827 239.212 133.887 239.982C134.971 240.729 136.356 241.331 138.042 241.789C139.728 242.223 141.764 242.439 144.148 242.439C146.148 242.439 148.039 242.283 149.821 241.97C151.604 241.657 153.254 241.223 154.771 240.669C156.289 240.115 157.662 239.465 158.891 238.718C160.143 237.971 161.215 237.152 162.106 236.261C161.528 232.31 159.794 229.335 156.903 227.336C154.013 225.312 150.219 224.301 145.521 224.301C143.161 224.301 141.065 224.542 139.234 225.023C137.404 225.505 135.862 226.18 134.609 227.047C133.357 227.89 132.405 228.902 131.755 230.082C131.104 231.262 130.779 232.551 130.779 233.948ZM188.447 214.798H209.151C215.198 214.798 220.449 215.448 224.905 216.749C229.362 218.05 233.047 219.917 235.962 222.35C238.901 224.758 241.081 227.697 242.502 231.166C243.947 234.611 244.67 238.489 244.67 242.801C244.67 246.896 243.959 250.69 242.538 254.183C241.117 257.651 238.949 260.662 236.034 263.216C233.119 265.745 229.434 267.732 224.978 269.178C220.521 270.599 215.27 271.31 209.224 271.31L188.447 271.273V214.798ZM211.97 261.373C215.39 261.373 218.389 260.939 220.967 260.072C223.544 259.181 225.688 257.928 227.398 256.314C229.133 254.701 230.434 252.749 231.301 250.461C232.168 248.173 232.602 245.619 232.602 242.801C232.602 240.031 232.168 237.537 231.301 235.321C230.434 233.081 229.133 231.19 227.398 229.648C225.688 228.083 223.544 226.878 220.967 226.035C218.389 225.192 215.39 224.771 211.97 224.771H199.901V261.373H211.97ZM252.8 249.811C252.8 246.92 253.39 244.162 254.57 241.536C255.751 238.886 257.449 236.55 259.665 234.526C261.881 232.503 264.591 230.889 267.795 229.685C271.023 228.48 274.684 227.878 278.779 227.878C282.85 227.878 286.512 228.492 289.764 229.721C293.04 230.925 295.81 232.587 298.074 234.707C300.363 236.827 302.109 239.32 303.313 242.187C304.542 245.053 305.156 248.124 305.156 251.4C305.156 251.81 305.144 252.256 305.12 252.737C305.12 253.195 305.096 253.617 305.048 254.002H264.724C265.181 255.279 265.916 256.447 266.928 257.507C267.964 258.567 269.252 259.482 270.794 260.253C272.336 261.024 274.118 261.626 276.142 262.06C278.165 262.469 280.405 262.674 282.862 262.674C285.319 262.674 287.764 262.421 290.197 261.915C292.63 261.385 294.955 260.723 297.171 259.928L300.784 268.094C299.387 268.744 297.966 269.322 296.521 269.828C295.099 270.31 293.606 270.719 292.04 271.057C290.498 271.37 288.872 271.611 287.162 271.779C285.476 271.948 283.693 272.032 281.814 272.032C277.021 272.032 272.817 271.454 269.204 270.298C265.591 269.142 262.568 267.564 260.135 265.564C257.702 263.565 255.871 261.216 254.643 258.519C253.414 255.821 252.8 252.918 252.8 249.811ZM293.811 245.655C293.425 244.475 292.823 243.379 292.004 242.367C291.209 241.331 290.209 240.44 289.005 239.693C287.8 238.923 286.403 238.32 284.813 237.887C283.224 237.453 281.477 237.236 279.574 237.236C277.551 237.236 275.708 237.465 274.046 237.923C272.384 238.381 270.926 238.995 269.674 239.766C268.421 240.536 267.373 241.428 266.53 242.439C265.711 243.451 265.109 244.523 264.724 245.655H293.811ZM314.659 257.832C314.659 255.785 315.105 253.918 315.996 252.231C316.887 250.545 318.224 249.1 320.007 247.896C321.789 246.667 324.006 245.728 326.655 245.077C329.329 244.403 332.437 244.065 335.978 244.065C338.603 244.065 341.361 244.258 344.252 244.644C347.167 245.029 350.166 245.619 353.249 246.414C353.129 245.065 352.719 243.825 352.021 242.692C351.322 241.536 350.346 240.549 349.094 239.729C347.865 238.886 346.372 238.236 344.613 237.778C342.879 237.321 340.904 237.092 338.688 237.092C337.483 237.092 336.158 237.164 334.713 237.309C333.268 237.453 331.774 237.67 330.232 237.959C328.691 238.248 327.161 238.609 325.644 239.043C324.15 239.477 322.753 239.994 321.452 240.597L318.2 231.816C319.814 231.238 321.536 230.708 323.367 230.227C325.222 229.745 327.113 229.335 329.04 228.998C330.967 228.637 332.894 228.36 334.821 228.167C336.748 227.974 338.615 227.878 340.422 227.878C348.395 227.878 354.321 229.913 358.199 233.984C362.077 238.055 364.017 244.294 364.017 252.701V271.273H353.321V267.263C352.213 267.913 350.997 268.527 349.672 269.105C348.371 269.684 346.95 270.189 345.408 270.623C343.867 271.057 342.204 271.394 340.422 271.635C338.663 271.9 336.797 272.032 334.821 272.032C331.497 272.032 328.57 271.671 326.041 270.948C323.536 270.226 321.44 269.226 319.754 267.949C318.068 266.673 316.791 265.179 315.924 263.469C315.081 261.734 314.659 259.855 314.659 257.832ZM325.933 257.471C325.933 258.169 326.113 258.844 326.475 259.494C326.836 260.12 327.414 260.687 328.209 261.192C329.004 261.674 330.016 262.072 331.244 262.385C332.497 262.674 334.002 262.818 335.761 262.818C337.64 262.818 339.458 262.65 341.217 262.312C342.975 261.975 344.613 261.53 346.131 260.976C347.648 260.422 349.021 259.783 350.25 259.061C351.479 258.338 352.502 257.591 353.321 256.82V254.941C351.683 254.484 350.057 254.098 348.443 253.785C346.854 253.472 345.324 253.231 343.854 253.062C342.409 252.87 341.036 252.737 339.735 252.665C338.459 252.593 337.339 252.557 336.375 252.557C334.376 252.557 332.714 252.689 331.389 252.954C330.064 253.219 328.992 253.58 328.173 254.038C327.354 254.472 326.776 254.99 326.438 255.592C326.101 256.194 325.933 256.82 325.933 257.471ZM378.47 211.329H389.165V271.273H378.47V211.329ZM404.594 258.193C407.484 259.928 410.664 261.204 414.133 262.023C417.602 262.842 421.155 263.252 424.792 263.252C427.249 263.252 429.297 263.083 430.935 262.746C432.573 262.409 433.885 261.975 434.873 261.445C435.861 260.915 436.559 260.313 436.969 259.639C437.378 258.964 437.583 258.278 437.583 257.579C437.583 256.567 437.137 255.7 436.246 254.978C435.379 254.255 433.934 253.894 431.91 253.894C430.971 253.894 429.959 253.954 428.875 254.074C427.791 254.195 426.647 254.327 425.442 254.472C424.262 254.592 423.021 254.713 421.721 254.833C420.444 254.953 419.143 255.014 417.818 255.014C414.928 255.014 412.459 254.701 410.411 254.074C408.388 253.448 406.738 252.593 405.461 251.509C404.184 250.425 403.257 249.148 402.679 247.679C402.101 246.185 401.812 244.583 401.812 242.873C401.812 240.705 402.317 238.706 403.329 236.875C404.341 235.044 405.786 233.466 407.665 232.142C409.544 230.793 411.808 229.745 414.458 228.998C417.132 228.251 420.107 227.878 423.383 227.878C425.093 227.878 426.876 227.986 428.73 228.203C430.609 228.396 432.452 228.661 434.259 228.998C436.065 229.335 437.8 229.733 439.462 230.19C441.124 230.624 442.593 231.094 443.87 231.6L440.51 239.91C437.788 238.898 435.066 238.104 432.344 237.525C429.646 236.923 426.864 236.622 423.997 236.622C421.998 236.622 420.299 236.779 418.902 237.092C417.529 237.381 416.409 237.778 415.542 238.284C414.675 238.766 414.036 239.332 413.627 239.982C413.242 240.609 413.049 241.271 413.049 241.97C413.049 242.476 413.145 242.933 413.338 243.343C413.555 243.752 413.892 244.114 414.35 244.427C414.831 244.716 415.446 244.945 416.192 245.113C416.963 245.258 417.903 245.33 419.011 245.33C420.022 245.33 421.094 245.27 422.227 245.149C423.359 245.029 424.539 244.909 425.768 244.788C426.996 244.644 428.261 244.511 429.562 244.391C430.886 244.27 432.235 244.21 433.608 244.21C436.162 244.21 438.39 244.511 440.293 245.113C442.22 245.715 443.81 246.559 445.062 247.643C446.315 248.727 447.255 250.003 447.881 251.473C448.507 252.942 448.82 254.544 448.82 256.278C448.82 258.519 448.302 260.602 447.267 262.529C446.231 264.456 444.689 266.131 442.642 267.552C440.594 268.949 438.041 270.045 434.981 270.84C431.946 271.635 428.429 272.032 424.431 272.032C421.974 272.032 419.601 271.876 417.312 271.562C415.024 271.273 412.844 270.876 410.772 270.37C408.701 269.84 406.75 269.226 404.919 268.527C403.112 267.829 401.462 267.082 399.969 266.287L404.594 258.193Z"/>
</mask>
<path d="M59.9951 258.229L60.4977 257.365L59.6372 256.865L59.1329 257.723L59.9951 258.229ZM63.4639 259.819L63.1264 260.761L63.4639 259.819ZM67.4023 260.976L67.1762 261.95L67.1863 261.952L67.1963 261.954L67.4023 260.976ZM71.5215 261.662L71.3996 262.655L71.4091 262.656L71.4186 262.657L71.5215 261.662ZM83.0479 260.795L82.7438 259.842L82.7408 259.843L83.0479 260.795ZM92.8037 252.99L91.921 252.52L91.9188 252.524L92.8037 252.99ZM94.6465 246.848L95.6408 246.955L95.895 244.59L94.0273 246.062L94.6465 246.848ZM85.6494 251.22L85.9114 252.185L85.9206 252.182L85.6494 251.22ZM80.4102 252.268L80.5309 253.26L80.5423 253.259L80.4102 252.268ZM65.415 251.328L65.1329 252.287L65.135 252.288L65.415 251.328ZM53.2744 241.897L52.3743 242.333L52.38 242.345L53.2744 241.897ZM53.2744 226.216L52.3677 225.794L52.3644 225.801L53.2744 226.216ZM58.2607 219.893L58.8917 220.668L58.8967 220.664L58.2607 219.893ZM66.4268 215.665L66.7238 216.62L66.7303 216.618L66.4268 215.665ZM103.716 229.215L102.784 229.577L102.787 229.585L103.716 229.215ZM103.463 255.014L102.535 254.64L102.534 254.643L103.463 255.014ZM97.1758 264.517L96.4886 263.79L96.4853 263.793L97.1758 264.517ZM70.582 271.743L70.4674 272.737L70.4688 272.737L70.582 271.743ZM64.9814 270.768L64.7538 271.741L64.9814 270.768ZM59.5977 269.142L59.2422 270.076L59.2465 270.078L59.5977 269.142ZM54.9004 266.901L54.0382 266.395L53.5338 267.253L54.3902 267.761L54.9004 266.901ZM66.1738 239.982L65.5857 240.791L65.596 240.799L65.6065 240.806L66.1738 239.982ZM70.3291 241.789L70.0671 242.754L70.0801 242.758L70.3291 241.789ZM91.1777 238.718L90.6656 237.859L90.6583 237.863L91.1777 238.718ZM94.3936 236.261L95.1007 236.968L95.4557 236.613L95.383 236.116L94.3936 236.261ZM89.1904 227.336L88.617 228.155L88.6216 228.158L89.1904 227.336ZM66.8965 227.047L67.4549 227.877L67.4657 227.869L66.8965 227.047ZM59.4925 259.094C60.5873 259.73 61.7998 260.285 63.1264 260.761L63.8013 258.878C62.5746 258.438 61.4746 257.933 60.4977 257.365L59.4925 259.094ZM63.1264 260.761C64.4403 261.232 65.7903 261.628 67.1762 261.95L67.6285 260.001C66.3164 259.697 65.0408 259.322 63.8013 258.878L63.1264 260.761ZM67.1963 261.954C68.5968 262.249 69.9979 262.483 71.3996 262.655L71.6434 260.67C70.299 260.504 68.954 260.28 67.6084 259.997L67.1963 261.954ZM71.4186 262.657C72.8459 262.804 74.2053 262.879 75.4961 262.879V260.879C74.2817 260.879 72.9914 260.809 71.6244 260.667L71.4186 262.657ZM75.4961 262.879C78.3757 262.879 80.9989 262.507 83.3549 261.747L82.7408 259.843C80.6163 260.529 78.2051 260.879 75.4961 260.879V262.879ZM83.3519 261.748C85.7194 260.992 87.7842 259.913 89.5302 258.501L88.2725 256.946C86.7425 258.184 84.905 259.153 82.7438 259.842L83.3519 261.748ZM89.5302 258.501C91.2719 257.092 92.6606 255.409 93.6886 253.456L91.9188 252.524C91.0197 254.233 89.8069 255.705 88.2725 256.946L89.5302 258.501ZM93.6864 253.46C94.7383 251.485 95.3872 249.313 95.6408 246.955L93.6522 246.741C93.424 248.863 92.8444 250.786 91.921 252.52L93.6864 253.46ZM94.0273 246.062C92.8363 247.001 91.5152 247.818 90.0613 248.51L90.9211 250.316C92.5024 249.563 93.9515 248.669 95.2656 247.633L94.0273 246.062ZM90.0613 248.51C88.5977 249.207 87.0371 249.79 85.3783 250.257L85.9206 252.182C87.6823 251.686 89.3496 251.064 90.9211 250.316L90.0613 248.51ZM85.3875 250.255C83.7457 250.7 82.0427 251.041 80.278 251.276L80.5423 253.259C82.3909 253.012 84.1807 252.655 85.9114 252.185L85.3875 250.255ZM80.2894 251.275C78.5472 251.487 76.7929 251.593 75.0264 251.593V253.593C76.8731 253.593 78.708 253.482 80.5309 253.26L80.2894 251.275ZM75.0264 251.593C71.5887 251.593 68.4809 251.181 65.695 250.368L65.135 252.288C68.1304 253.162 71.4302 253.593 75.0264 253.593V251.593ZM65.6972 250.369C62.9326 249.556 60.5921 248.391 58.6572 246.889L57.4306 248.469C59.5909 250.146 62.1644 251.414 65.1329 252.287L65.6972 250.369ZM58.6572 246.889C56.725 245.388 55.2325 243.577 54.1688 241.45L52.38 242.345C53.5807 244.746 55.2679 246.789 57.4306 248.469L58.6572 246.889ZM54.1745 241.462C53.1406 239.327 52.6123 236.889 52.6123 234.129H50.6123C50.6123 237.15 51.192 239.891 52.3744 242.333L54.1745 241.462ZM52.6123 234.129C52.6123 231.42 53.1394 228.925 54.1845 226.63L52.3644 225.801C51.1933 228.373 50.6123 231.153 50.6123 234.129H52.6123ZM54.1811 226.638C55.2459 224.349 56.8108 222.361 58.8917 220.668L57.6298 219.117C55.3266 220.99 53.5672 223.216 52.3678 225.794L54.1811 226.638ZM58.8967 220.664C60.971 218.955 63.5716 217.601 66.7238 216.62L66.1297 214.71C62.778 215.753 59.9346 217.217 57.6247 219.121L58.8967 220.664ZM66.7303 216.618C69.8627 215.62 73.5264 215.111 77.7363 215.111V213.111C73.3708 213.111 69.4948 213.638 66.1233 214.712L66.7303 216.618ZM77.7363 215.111C81.8192 215.111 85.5244 215.631 88.8602 216.657L89.4484 214.745C85.8949 213.652 81.9881 213.111 77.7363 213.111V215.111ZM88.8602 216.657C92.1759 217.677 94.994 219.258 97.3331 221.39L98.6806 219.912C96.1056 217.565 93.022 215.845 89.4484 214.745L88.8602 216.657ZM97.3331 221.39C99.6632 223.515 101.484 226.235 102.784 229.577L104.648 228.852C103.25 225.257 101.265 222.268 98.6806 219.912L97.3331 221.39ZM102.787 229.585C104.101 232.883 104.775 236.87 104.775 241.572H106.775C106.775 236.687 106.076 232.436 104.645 228.845L102.787 229.585ZM104.775 241.572C104.775 246.605 104.019 250.954 102.535 254.64L104.391 255.387C105.99 251.413 106.775 246.801 106.775 241.572H104.775ZM102.534 254.643C101.064 258.33 99.0456 261.371 96.4886 263.79L97.863 265.243C100.654 262.603 102.827 259.309 104.392 255.384L102.534 254.643ZM96.4853 263.793C93.9438 266.219 90.9376 268.037 87.4537 269.245L88.1088 271.134C91.8514 269.837 95.1082 267.873 97.8663 265.24L96.4853 263.793ZM87.4537 269.245C83.9554 270.457 80.1648 271.068 76.0742 271.068V273.068C80.3664 273.068 84.3805 272.427 88.1088 271.134L87.4537 269.245ZM76.0742 271.068C74.3567 271.068 72.5639 270.962 70.6952 270.75L70.4688 272.737C72.4061 272.957 74.2748 273.068 76.0742 273.068V271.068ZM70.6967 270.75C68.856 270.537 67.0269 270.219 65.2091 269.794L64.7538 271.741C66.6456 272.184 68.5502 272.515 70.4674 272.737L70.6967 270.75ZM65.2091 269.794C63.395 269.37 61.6417 268.84 59.9488 268.205L59.2465 270.078C61.0223 270.744 62.8583 271.298 64.7538 271.741L65.2091 269.794ZM59.9531 268.207C58.2908 267.575 56.7775 266.852 55.4106 266.041L54.3902 267.761C55.8657 268.637 57.4839 269.408 59.2422 270.076L59.9531 268.207ZM55.7626 267.408L60.8573 258.736L59.1329 257.723L54.0382 266.395L55.7626 267.408ZM62.0664 233.948C62.0664 235.277 62.3524 236.535 62.9266 237.711L64.7238 236.834C64.2863 235.938 64.0664 234.98 64.0664 233.948H62.0664ZM62.9266 237.711C63.5135 238.913 64.4119 239.938 65.5857 240.791L66.762 239.174C65.816 238.486 65.1486 237.704 64.7238 236.834L62.9266 237.711ZM65.6065 240.806C66.8084 241.634 68.3054 242.276 70.0672 242.754L70.5911 240.824C68.9804 240.387 67.7072 239.824 66.7411 239.159L65.6065 240.806ZM70.0801 242.758C71.8713 243.218 73.9954 243.439 76.4355 243.439V241.439C74.1062 241.439 72.1593 241.227 70.5781 240.821L70.0801 242.758ZM76.4355 243.439C78.4869 243.439 80.4362 243.279 82.2814 242.955L81.9354 240.985C80.2155 241.287 78.3828 241.439 76.4355 241.439V243.439ZM82.2814 242.955C84.1151 242.633 85.8226 242.185 87.4015 241.608L86.7157 239.73C85.2594 240.261 83.6668 240.681 81.9354 240.985L82.2814 242.955ZM87.4015 241.608C88.9731 241.035 90.4064 240.357 91.6972 239.572L90.6583 237.863C89.4921 238.572 88.1792 239.195 86.7157 239.73L87.4015 241.608ZM91.6898 239.577C93.0026 238.794 94.1426 237.926 95.1007 236.968L93.6864 235.554C92.862 236.378 91.8581 237.148 90.6657 237.859L91.6898 239.577ZM95.383 236.116C94.7707 231.932 92.9101 228.693 89.7593 226.513L88.6216 228.158C91.2521 229.978 92.8601 232.688 93.4041 236.406L95.383 236.116ZM89.7639 226.517C86.6576 224.342 82.644 223.301 77.8086 223.301V225.301C82.3677 225.301 85.942 226.283 88.617 228.155L89.7639 226.517ZM77.8086 223.301C75.3822 223.301 73.1983 223.548 71.267 224.056L71.776 225.991C73.5062 225.535 75.5136 225.301 77.8086 225.301V223.301ZM71.267 224.056C69.35 224.561 67.6956 225.277 66.3273 226.225L67.4657 227.869C68.6026 227.082 70.0315 226.45 71.776 225.991L71.267 224.056ZM66.3381 226.217C64.9697 227.138 63.9021 228.264 63.1662 229.599L64.9178 230.565C65.4827 229.54 66.3181 228.642 67.4549 227.876L66.3381 226.217ZM63.1662 229.599C62.4313 230.933 62.0664 232.389 62.0664 233.948H64.0664C64.0664 232.713 64.3519 231.592 64.9178 230.565L63.1662 229.599ZM127.708 258.229L128.211 257.365L127.35 256.865L126.846 257.723L127.708 258.229ZM131.177 259.819L130.839 260.761L131.177 259.819ZM135.115 260.976L134.889 261.95L134.899 261.952L134.909 261.954L135.115 260.976ZM139.234 261.662L139.112 262.655L139.122 262.656L139.131 262.657L139.234 261.662ZM150.761 260.795L150.457 259.842L150.454 259.843L150.761 260.795ZM160.517 252.99L159.634 252.52L159.632 252.524L160.517 252.99ZM162.359 246.848L163.354 246.955L163.608 244.59L161.74 246.062L162.359 246.848ZM153.362 251.22L153.624 252.185L153.633 252.182L153.362 251.22ZM148.123 252.268L148.244 253.26L148.255 253.259L148.123 252.268ZM133.128 251.328L132.846 252.287L132.848 252.288L133.128 251.328ZM120.987 241.897L120.087 242.333L120.093 242.345L120.987 241.897ZM120.987 226.216L120.081 225.794L120.077 225.801L120.987 226.216ZM125.974 219.893L126.605 220.668L126.61 220.664L125.974 219.893ZM134.14 215.665L134.437 216.62L134.443 216.618L134.14 215.665ZM171.429 229.215L170.497 229.577L170.5 229.585L171.429 229.215ZM171.176 255.014L170.248 254.64L170.247 254.643L171.176 255.014ZM164.889 264.517L164.201 263.79L164.198 263.793L164.889 264.517ZM138.295 271.743L138.18 272.737L138.182 272.737L138.295 271.743ZM132.694 270.768L132.467 271.741L132.694 270.768ZM127.311 269.142L126.955 270.076L126.959 270.078L127.311 269.142ZM122.613 266.901L121.751 266.395L121.247 267.253L122.103 267.761L122.613 266.901ZM133.887 239.982L133.299 240.791L133.309 240.799L133.319 240.806L133.887 239.982ZM138.042 241.789L137.78 242.754L137.793 242.758L138.042 241.789ZM158.891 238.718L158.379 237.859L158.371 237.863L158.891 238.718ZM162.106 236.261L162.814 236.968L163.169 236.613L163.096 236.116L162.106 236.261ZM156.903 227.336L156.33 228.155L156.334 228.158L156.903 227.336ZM134.609 227.047L135.168 227.877L135.179 227.869L134.609 227.047ZM127.205 259.094C128.3 259.73 129.513 260.285 130.839 260.761L131.514 258.878C130.287 258.438 129.187 257.933 128.211 257.365L127.205 259.094ZM130.839 260.761C132.153 261.232 133.503 261.628 134.889 261.95L135.341 260.001C134.029 259.697 132.754 259.322 131.514 258.878L130.839 260.761ZM134.909 261.954C136.31 262.249 137.711 262.483 139.112 262.655L139.356 260.67C138.012 260.504 136.667 260.28 135.321 259.997L134.909 261.954ZM139.131 262.657C140.559 262.804 141.918 262.879 143.209 262.879V260.879C141.995 260.879 140.704 260.809 139.337 260.667L139.131 262.657ZM143.209 262.879C146.089 262.879 148.712 262.507 151.068 261.747L150.454 259.843C148.329 260.529 145.918 260.879 143.209 260.879V262.879ZM151.065 261.748C153.432 260.992 155.497 259.913 157.243 258.501L155.985 256.946C154.455 258.184 152.618 259.153 150.457 259.842L151.065 261.748ZM157.243 258.501C158.985 257.092 160.374 255.409 161.402 253.456L159.632 252.524C158.733 254.233 157.52 255.705 155.985 256.946L157.243 258.501ZM161.399 253.46C162.451 251.485 163.1 249.313 163.354 246.955L161.365 246.741C161.137 248.863 160.557 250.786 159.634 252.52L161.399 253.46ZM161.74 246.062C160.549 247.001 159.228 247.818 157.774 248.51L158.634 250.316C160.215 249.563 161.664 248.669 162.979 247.633L161.74 246.062ZM157.774 248.51C156.311 249.207 154.75 249.79 153.091 250.257L153.633 252.182C155.395 251.686 157.062 251.064 158.634 250.316L157.774 248.51ZM153.1 250.255C151.459 250.7 149.756 251.041 147.991 251.276L148.255 253.259C150.104 253.012 151.894 252.655 153.624 252.185L153.1 250.255ZM148.002 251.275C146.26 251.487 144.506 251.593 142.739 251.593V253.593C144.586 253.593 146.421 253.482 148.244 253.26L148.002 251.275ZM142.739 251.593C139.302 251.593 136.194 251.181 133.408 250.368L132.848 252.288C135.843 253.162 139.143 253.593 142.739 253.593V251.593ZM133.41 250.369C130.645 249.556 128.305 248.391 126.37 246.889L125.144 248.469C127.304 250.146 129.877 251.414 132.846 252.287L133.41 250.369ZM126.37 246.889C124.438 245.388 122.945 243.577 121.882 241.45L120.093 242.345C121.294 244.746 122.981 246.789 125.144 248.469L126.37 246.889ZM121.887 241.462C120.854 239.327 120.325 236.889 120.325 234.129H118.325C118.325 237.15 118.905 239.891 120.087 242.333L121.887 241.462ZM120.325 234.129C120.325 231.42 120.852 228.925 121.897 226.63L120.077 225.801C118.906 228.373 118.325 231.153 118.325 234.129H120.325ZM121.894 226.638C122.959 224.349 124.524 222.361 126.605 220.668L125.343 219.117C123.04 220.99 121.28 223.216 120.081 225.794L121.894 226.638ZM126.61 220.664C128.684 218.955 131.284 217.601 134.437 216.62L133.843 214.71C130.491 215.753 127.647 217.217 125.338 219.121L126.61 220.664ZM134.443 216.618C137.576 215.62 141.239 215.111 145.449 215.111V213.111C141.084 213.111 137.208 213.638 133.836 214.712L134.443 216.618ZM145.449 215.111C149.532 215.111 153.237 215.631 156.573 216.657L157.161 214.745C153.608 213.652 149.701 213.111 145.449 213.111V215.111ZM156.573 216.657C159.889 217.677 162.707 219.258 165.046 221.39L166.393 219.912C163.819 217.565 160.735 215.845 157.161 214.745L156.573 216.657ZM165.046 221.39C167.376 223.515 169.197 226.235 170.497 229.577L172.361 228.852C170.963 225.257 168.977 222.268 166.393 219.912L165.046 221.39ZM170.5 229.585C171.814 232.883 172.488 236.87 172.488 241.572H174.488C174.488 236.687 173.789 232.436 172.358 228.845L170.5 229.585ZM172.488 241.572C172.488 246.605 171.732 250.954 170.248 254.64L172.103 255.387C173.703 251.413 174.488 246.801 174.488 241.572H172.488ZM170.247 254.643C168.777 258.33 166.758 261.371 164.201 263.79L165.576 265.243C168.367 262.603 170.539 259.309 172.105 255.384L170.247 254.643ZM164.198 263.793C161.657 266.219 158.651 268.037 155.167 269.245L155.822 271.134C159.564 269.837 162.821 267.873 165.579 265.24L164.198 263.793ZM155.167 269.245C151.668 270.457 147.878 271.068 143.787 271.068V273.068C148.079 273.068 152.093 272.427 155.822 271.134L155.167 269.245ZM143.787 271.068C142.07 271.068 140.277 270.962 138.408 270.75L138.182 272.737C140.119 272.957 141.988 273.068 143.787 273.068V271.068ZM138.41 270.75C136.569 270.537 134.74 270.219 132.922 269.794L132.467 271.741C134.359 272.184 136.263 272.515 138.18 272.737L138.41 270.75ZM132.922 269.794C131.108 269.37 129.355 268.84 127.662 268.205L126.959 270.078C128.735 270.744 130.571 271.298 132.467 271.741L132.922 269.794ZM127.666 268.207C126.004 267.575 124.49 266.852 123.123 266.041L122.103 267.761C123.579 268.637 125.197 269.408 126.955 270.076L127.666 268.207ZM123.475 267.408L128.57 258.736L126.846 257.723L121.751 266.395L123.475 267.408ZM129.779 233.948C129.779 235.277 130.065 236.535 130.64 237.711L132.437 236.834C131.999 235.938 131.779 234.98 131.779 233.948H129.779ZM130.64 237.711C131.226 238.913 132.125 239.938 133.299 240.791L134.475 239.174C133.529 238.486 132.862 237.704 132.437 236.834L130.64 237.711ZM133.319 240.806C134.521 241.634 136.018 242.276 137.78 242.754L138.304 240.824C136.693 240.387 135.42 239.824 134.454 239.159L133.319 240.806ZM137.793 242.758C139.584 243.218 141.708 243.439 144.148 243.439V241.439C141.819 241.439 139.872 241.227 138.291 240.821L137.793 242.758ZM144.148 243.439C146.2 243.439 148.149 243.279 149.994 242.955L149.648 240.985C147.928 241.287 146.096 241.439 144.148 241.439V243.439ZM149.994 242.955C151.828 242.633 153.536 242.185 155.114 241.608L154.429 239.73C152.972 240.261 151.38 240.681 149.648 240.985L149.994 242.955ZM155.114 241.608C156.686 241.035 158.119 240.357 159.41 239.572L158.371 237.863C157.205 238.572 155.892 239.195 154.429 239.73L155.114 241.608ZM159.403 239.577C160.715 238.794 161.855 237.926 162.814 236.968L161.399 235.554C160.575 236.378 159.571 237.148 158.379 237.859L159.403 239.577ZM163.096 236.116C162.484 231.932 160.623 228.693 157.472 226.513L156.334 228.158C158.965 229.978 160.573 232.688 161.117 236.406L163.096 236.116ZM157.477 226.517C154.37 224.342 150.357 223.301 145.521 223.301V225.301C150.081 225.301 153.655 226.283 156.33 228.155L157.477 226.517ZM145.521 223.301C143.095 223.301 140.911 223.548 138.98 224.056L139.489 225.991C141.219 225.535 143.227 225.301 145.521 225.301V223.301ZM138.98 224.056C137.063 224.561 135.408 225.277 134.04 226.225L135.179 227.869C136.315 227.082 137.744 226.45 139.489 225.991L138.98 224.056ZM134.051 226.217C132.683 227.138 131.615 228.264 130.879 229.599L132.631 230.565C133.196 229.54 134.031 228.642 135.168 227.876L134.051 226.217ZM130.879 229.599C130.144 230.933 129.779 232.389 129.779 233.948H131.779C131.779 232.713 132.065 231.592 132.631 230.565L130.879 229.599ZM188.447 214.798V213.798H187.447V214.798H188.447ZM235.962 222.35L235.321 223.117L235.328 223.123L235.962 222.35ZM242.502 231.166L241.577 231.545L241.58 231.553L242.502 231.166ZM242.538 254.183L243.463 254.562L243.464 254.56L242.538 254.183ZM236.034 263.216L236.69 263.971L236.693 263.968L236.034 263.216ZM224.978 269.178L225.281 270.13L225.286 270.129L224.978 269.178ZM209.224 271.31L209.222 272.31H209.224V271.31ZM188.447 271.273H187.447V272.272L188.446 272.273L188.447 271.273ZM220.967 260.072L221.286 261.02L221.294 261.017L220.967 260.072ZM227.398 256.314L226.717 255.582L226.712 255.587L227.398 256.314ZM231.301 235.321L230.368 235.682L230.37 235.686L231.301 235.321ZM227.398 229.648L226.723 230.386L226.729 230.391L226.734 230.396L227.398 229.648ZM199.901 224.771V223.771H198.901V224.771H199.901ZM199.901 261.373H198.901V262.373H199.901V261.373ZM188.447 215.798H209.151V213.798H188.447V215.798ZM209.151 215.798C215.13 215.798 220.282 216.441 224.625 217.709L225.185 215.789C220.615 214.455 215.265 213.798 209.151 213.798V215.798ZM224.625 217.709C228.978 218.98 232.533 220.79 235.321 223.117L236.603 221.582C233.562 219.043 229.745 217.12 225.185 215.789L224.625 217.709ZM235.328 223.123C238.14 225.428 240.219 228.232 241.577 231.545L243.427 230.787C241.942 227.162 239.661 224.089 236.596 221.576L235.328 223.123ZM241.58 231.553C242.966 234.858 243.67 238.601 243.67 242.801H245.67C245.67 238.376 244.928 234.364 243.424 230.779L241.58 231.553ZM243.67 242.801C243.67 246.778 242.98 250.443 241.612 253.806L243.464 254.56C244.938 250.937 245.67 247.014 245.67 242.801H243.67ZM241.613 253.803C240.252 257.124 238.178 260.009 235.375 262.464L236.693 263.968C239.72 261.316 241.981 258.179 243.463 254.562L241.613 253.803ZM235.379 262.461C232.585 264.885 229.024 266.814 224.669 268.227L225.286 270.129C229.843 268.651 233.654 266.605 236.69 263.971L235.379 262.461ZM224.674 268.225C220.339 269.607 215.195 270.31 209.224 270.31V272.31C215.344 272.31 220.703 271.591 225.281 270.13L224.674 268.225ZM209.225 270.31L188.449 270.273L188.446 272.273L209.222 272.31L209.225 270.31ZM189.447 271.273V214.798H187.447V271.273H189.447ZM211.97 262.373C215.472 262.373 218.583 261.929 221.286 261.02L220.648 259.124C218.196 259.949 215.309 260.373 211.97 260.373V262.373ZM221.294 261.017C223.984 260.087 226.256 258.767 228.085 257.042L226.712 255.587C225.12 257.09 223.105 258.275 220.64 259.127L221.294 261.017ZM228.08 257.047C229.93 255.324 231.316 253.243 232.236 250.815L230.366 250.107C229.551 252.256 228.335 254.077 226.717 255.582L228.08 257.047ZM232.236 250.815C233.152 248.398 233.602 245.722 233.602 242.801H231.602C231.602 245.516 231.184 247.947 230.366 250.107L232.236 250.815ZM233.602 242.801C233.602 239.926 233.151 237.307 232.232 234.957L230.37 235.686C231.184 237.768 231.602 240.135 231.602 242.801H233.602ZM232.233 234.96C231.311 232.577 229.92 230.552 228.063 228.901L226.734 230.396C228.345 231.828 229.556 233.585 230.368 235.682L232.233 234.96ZM228.074 228.911C226.242 227.234 223.968 225.965 221.278 225.085L220.656 226.986C223.121 227.792 225.134 228.931 226.723 230.386L228.074 228.911ZM221.278 225.085C218.578 224.201 215.47 223.771 211.97 223.771V225.771C215.311 225.771 218.201 226.183 220.656 226.986L221.278 225.085ZM211.97 223.771H199.901V225.771H211.97V223.771ZM198.901 224.771V261.373H200.901V224.771H198.901ZM199.901 262.373H211.97V260.373H199.901V262.373ZM254.57 241.536L255.482 241.946L255.484 241.943L254.57 241.536ZM267.795 229.685L267.445 228.748L267.443 228.749L267.795 229.685ZM289.764 229.721L289.41 230.656L289.419 230.659L289.764 229.721ZM298.074 234.707L297.391 235.437L297.395 235.441L298.074 234.707ZM303.313 242.187L302.392 242.574L302.394 242.58L303.313 242.187ZM305.12 252.737L304.121 252.687L304.12 252.712V252.737H305.12ZM305.048 254.002V255.002H305.931L306.04 254.126L305.048 254.002ZM264.724 254.002V253.002H263.303L263.782 254.339L264.724 254.002ZM266.928 257.507L266.204 258.197L266.213 258.206L266.928 257.507ZM276.142 262.06L275.932 263.037L275.943 263.04L276.142 262.06ZM290.197 261.915L290.401 262.894L290.41 262.892L290.197 261.915ZM297.171 259.928L298.085 259.523L297.709 258.672L296.833 258.986L297.171 259.928ZM300.784 268.094L301.206 269L302.096 268.586L301.699 267.689L300.784 268.094ZM296.521 269.828L296.842 270.775L296.851 270.772L296.521 269.828ZM292.04 271.057L292.239 272.037L292.251 272.034L292.04 271.057ZM287.162 271.779L287.064 270.784L287.063 270.784L287.162 271.779ZM260.135 265.564L259.5 266.337L260.135 265.564ZM293.811 245.655V246.655H295.189L294.761 245.345L293.811 245.655ZM292.004 242.367L291.211 242.976L291.218 242.986L291.227 242.996L292.004 242.367ZM289.005 239.693L288.466 240.536L288.472 240.539L288.478 240.543L289.005 239.693ZM266.53 242.439L265.762 241.799L265.758 241.805L265.753 241.81L266.53 242.439ZM264.724 245.655L263.777 245.333L263.327 246.655H264.724V245.655ZM253.8 249.811C253.8 247.061 254.36 244.442 255.482 241.946L253.658 241.126C252.42 243.881 251.8 246.779 251.8 249.811H253.8ZM255.484 241.943C256.606 239.423 258.221 237.199 260.339 235.265L258.991 233.788C256.676 235.901 254.895 238.349 253.657 241.129L255.484 241.943ZM260.339 235.265C262.449 233.338 265.045 231.787 268.147 230.621L267.443 228.749C264.137 229.991 261.313 231.668 258.991 233.788L260.339 235.265ZM268.145 230.621C271.242 229.466 274.782 228.878 278.779 228.878V226.878C274.587 226.878 270.804 227.494 267.445 228.748L268.145 230.621ZM278.779 228.878C282.75 228.878 286.289 229.477 289.41 230.656L290.117 228.785C286.735 227.507 282.951 226.878 278.779 226.878V228.878ZM289.419 230.659C292.585 231.823 295.236 233.42 297.391 235.437L298.758 233.977C296.384 231.755 293.495 230.027 290.109 228.782L289.419 230.659ZM297.395 235.441C299.579 237.464 301.242 239.839 302.392 242.574L304.235 241.799C302.976 238.801 301.146 236.19 298.754 233.973L297.395 235.441ZM302.394 242.58C303.567 245.316 304.156 248.253 304.156 251.4H306.156C306.156 247.996 305.517 244.79 304.233 241.793L302.394 242.58ZM304.156 251.4C304.156 251.791 304.145 252.219 304.121 252.687L306.119 252.787C306.144 252.292 306.156 251.829 306.156 251.4H304.156ZM304.12 252.737C304.12 253.161 304.098 253.54 304.056 253.878L306.04 254.126C306.094 253.693 306.12 253.229 306.12 252.737H304.12ZM305.048 253.002H264.724V255.002H305.048V253.002ZM263.782 254.339C264.291 255.758 265.104 257.045 266.204 258.197L267.651 256.816C266.728 255.849 266.072 254.799 265.665 253.664L263.782 254.339ZM266.213 258.206C267.338 259.357 268.721 260.335 270.347 261.147L271.241 259.359C269.783 258.63 268.589 257.776 267.643 256.808L266.213 258.206ZM270.347 261.147C271.977 261.963 273.842 262.59 275.932 263.037L276.351 261.082C274.394 260.662 272.694 260.085 271.241 259.359L270.347 261.147ZM275.943 263.04C278.043 263.465 280.351 263.674 282.862 263.674V261.674C280.46 261.674 278.287 261.474 276.34 261.079L275.943 263.04ZM282.862 263.674C285.389 263.674 287.902 263.414 290.401 262.894L289.994 260.936C287.627 261.428 285.25 261.674 282.862 261.674V263.674ZM290.41 262.892C292.883 262.353 295.249 261.679 297.509 260.869L296.833 258.986C294.66 259.766 292.377 260.417 289.984 260.938L290.41 262.892ZM296.256 260.332L299.87 268.498L301.699 267.689L298.085 259.523L296.256 260.332ZM300.362 267.187C298.995 267.824 297.604 268.389 296.19 268.884L296.851 270.772C298.328 270.255 299.779 269.665 301.206 269L300.362 267.187ZM296.199 268.881C294.817 269.35 293.36 269.749 291.829 270.079L292.251 272.034C293.851 271.689 295.382 271.27 296.842 270.775L296.199 268.881ZM291.841 270.077C290.336 270.382 288.743 270.619 287.064 270.784L287.26 272.774C289.001 272.603 290.661 272.357 292.239 272.037L291.841 270.077ZM287.063 270.784C285.413 270.949 283.664 271.032 281.814 271.032V273.032C283.723 273.032 285.539 272.947 287.262 272.774L287.063 270.784ZM281.814 271.032C277.098 271.032 273.002 270.463 269.509 269.345L268.899 271.25C272.633 272.445 276.943 273.032 281.814 273.032V271.032ZM269.509 269.345C265.992 268.22 263.087 266.696 260.77 264.792L259.5 266.337C262.048 268.431 265.19 270.063 268.899 271.25L269.509 269.345ZM260.77 264.792C258.447 262.883 256.714 260.655 255.553 258.104L253.732 258.933C255.028 261.778 256.957 264.247 259.5 266.337L260.77 264.792ZM255.553 258.104C254.386 255.543 253.8 252.782 253.8 249.811H251.8C251.8 253.054 252.442 256.099 253.732 258.933L255.553 258.104ZM294.761 245.345C294.336 244.043 293.673 242.84 292.781 241.738L291.227 242.996C291.973 243.918 292.514 244.907 292.86 245.966L294.761 245.345ZM292.797 241.758C291.923 240.619 290.83 239.648 289.532 238.843L288.478 240.543C289.589 241.232 290.495 242.044 291.211 242.976L292.797 241.758ZM289.544 238.851C288.242 238.018 286.75 237.378 285.077 236.922L284.55 238.851C286.057 239.262 287.359 239.827 288.466 240.536L289.544 238.851ZM285.077 236.922C283.389 236.462 281.553 236.236 279.574 236.236V238.236C281.402 238.236 283.058 238.445 284.55 238.851L285.077 236.922ZM279.574 236.236C277.476 236.236 275.542 236.474 273.78 236.959L274.311 238.887C275.874 238.457 277.625 238.236 279.574 238.236V236.236ZM273.78 236.959C272.042 237.437 270.495 238.086 269.15 238.914L270.198 240.617C271.358 239.904 272.725 239.324 274.311 238.887L273.78 236.959ZM269.15 238.914C267.816 239.735 266.682 240.695 265.762 241.799L267.298 243.08C268.065 242.16 269.027 241.338 270.198 240.617L269.15 238.914ZM265.753 241.81C264.866 242.905 264.204 244.08 263.777 245.333L265.67 245.978C266.015 244.966 266.556 243.997 267.308 243.069L265.753 241.81ZM264.724 246.655H293.811V244.655H264.724V246.655ZM315.996 252.231L315.112 251.764L315.996 252.231ZM320.007 247.896L320.567 248.724L320.574 248.719L320.007 247.896ZM326.655 245.077L326.894 246.048L326.9 246.047L326.655 245.077ZM344.252 244.644L344.12 245.635L344.121 245.635L344.252 244.644ZM353.249 246.414L352.999 247.382L354.371 247.736L354.245 246.325L353.249 246.414ZM352.021 242.692L351.165 243.21L351.169 243.217L352.021 242.692ZM349.094 239.729L348.528 240.554L348.537 240.56L348.547 240.566L349.094 239.729ZM344.613 237.778L344.358 238.745L344.361 238.746L344.613 237.778ZM325.644 239.043L325.369 238.081L325.365 238.083L325.644 239.043ZM321.452 240.597L320.514 240.944L320.89 241.959L321.872 241.504L321.452 240.597ZM318.2 231.816L317.863 230.875L316.911 231.216L317.262 232.164L318.2 231.816ZM323.367 230.227L323.116 229.259L323.113 229.259L323.367 230.227ZM329.04 228.998L329.212 229.983L329.224 229.981L329.04 228.998ZM358.199 233.984L357.475 234.674L358.199 233.984ZM364.017 271.273V272.273H365.017V271.273H364.017ZM353.321 271.273H352.321V272.273H353.321V271.273ZM353.321 267.263H354.321V265.516L352.815 266.4L353.321 267.263ZM349.672 269.105L349.272 268.189L349.266 268.192L349.672 269.105ZM340.422 271.635L340.288 270.644L340.28 270.645L340.273 270.646L340.422 271.635ZM326.041 270.948L325.764 271.909L325.766 271.91L326.041 270.948ZM319.754 267.949L319.15 268.746L319.754 267.949ZM315.924 263.469L315.024 263.906L315.028 263.913L315.032 263.921L315.924 263.469ZM326.475 259.494L325.6 259.98L325.604 259.987L325.608 259.994L326.475 259.494ZM328.209 261.192L327.672 262.036L327.681 262.042L327.691 262.048L328.209 261.192ZM331.244 262.385L330.997 263.354L331.008 263.357L331.019 263.359L331.244 262.385ZM341.217 262.312L341.028 261.33L341.217 262.312ZM353.321 256.82L354.007 257.549L354.321 257.252V256.82H353.321ZM353.321 254.941H354.321V254.183L353.59 253.978L353.321 254.941ZM348.443 253.785L348.25 254.766L348.253 254.767L348.443 253.785ZM343.854 253.062L343.722 254.054L343.731 254.055L343.74 254.056L343.854 253.062ZM339.735 252.665L339.679 253.663L339.68 253.663L339.735 252.665ZM331.389 252.954L331.585 253.935L331.389 252.954ZM328.173 254.038L328.641 254.922L328.651 254.917L328.661 254.911L328.173 254.038ZM315.659 257.832C315.659 255.935 316.071 254.23 316.88 252.699L315.112 251.764C314.139 253.605 313.659 255.634 313.659 257.832H315.659ZM316.88 252.699C317.685 251.176 318.903 249.848 320.567 248.724L319.447 247.067C317.546 248.351 316.089 249.915 315.112 251.764L316.88 252.699ZM320.574 248.719C322.235 247.574 324.332 246.677 326.894 246.048L326.417 244.106C323.679 244.778 321.344 245.759 319.439 247.072L320.574 248.719ZM326.9 246.047C329.475 245.397 332.497 245.065 335.978 245.065V243.065C332.376 243.065 329.183 243.408 326.411 244.108L326.9 246.047ZM335.978 245.065C338.554 245.065 341.268 245.255 344.12 245.635L344.384 243.652C341.454 243.262 338.652 243.065 335.978 243.065V245.065ZM344.121 245.635C346.992 246.015 349.952 246.597 352.999 247.382L353.499 245.446C350.379 244.642 347.341 244.043 344.383 243.652L344.121 245.635ZM354.245 246.325C354.111 244.824 353.653 243.434 352.872 242.167L351.169 243.217C351.785 244.215 352.146 245.306 352.253 246.503L354.245 246.325ZM352.876 242.175C352.092 240.877 351.005 239.785 349.641 238.893L348.547 240.566C349.687 241.312 350.552 242.195 351.165 243.209L352.876 242.175ZM349.66 238.905C348.317 237.984 346.712 237.291 344.865 236.811L344.361 238.746C346.032 239.181 347.413 239.789 348.528 240.554L349.66 238.905ZM344.868 236.811C343.034 236.327 340.97 236.092 338.688 236.092V238.092C340.837 238.092 342.724 238.314 344.358 238.745L344.868 236.811ZM338.688 236.092C337.444 236.092 336.085 236.166 334.613 236.314L334.812 238.304C336.231 238.162 337.522 238.092 338.688 238.092V236.092ZM334.613 236.314C333.138 236.461 331.616 236.682 330.048 236.976L330.417 238.942C331.932 238.658 333.398 238.445 334.812 238.304L334.613 236.314ZM330.048 236.976C328.476 237.271 326.916 237.639 325.369 238.081L325.918 240.004C327.406 239.579 328.906 239.225 330.417 238.942L330.048 236.976ZM325.365 238.083C323.827 238.529 322.382 239.064 321.032 239.689L321.872 241.504C323.124 240.925 324.473 240.424 325.922 240.003L325.365 238.083ZM322.39 240.249L319.138 231.469L317.262 232.164L320.514 240.944L322.39 240.249ZM318.537 232.758C320.122 232.19 321.816 231.669 323.622 231.194L323.113 229.259C321.257 229.748 319.507 230.286 317.863 230.875L318.537 232.758ZM323.619 231.194C325.447 230.72 327.311 230.316 329.212 229.983L328.868 228.013C326.915 228.355 324.997 228.77 323.116 229.259L323.619 231.194ZM329.224 229.981C331.124 229.625 333.022 229.352 334.921 229.162L334.722 227.172C332.766 227.368 330.811 227.649 328.856 228.015L329.224 229.981ZM334.921 229.162C336.817 228.972 338.651 228.878 340.422 228.878V226.878C338.58 226.878 336.68 226.976 334.722 227.172L334.921 229.162ZM340.422 228.878C348.238 228.878 353.853 230.872 357.475 234.674L358.923 233.295C354.789 228.955 348.552 226.878 340.422 226.878V228.878ZM357.475 234.674C361.106 238.485 363.017 244.426 363.017 252.701H365.017C365.017 244.162 363.049 237.626 358.923 233.295L357.475 234.674ZM363.017 252.701V271.273H365.017V252.701H363.017ZM364.017 270.273H353.321V272.273H364.017V270.273ZM354.321 271.273V267.263H352.321V271.273H354.321ZM352.815 266.4C351.745 267.028 350.565 267.625 349.272 268.189L350.072 270.022C351.429 269.43 352.681 268.798 353.827 268.125L352.815 266.4ZM349.266 268.192C348.014 268.748 346.638 269.238 345.137 269.66L345.679 271.586C347.261 271.141 348.728 270.619 350.078 270.019L349.266 268.192ZM345.137 269.66C343.646 270.08 342.03 270.408 340.288 270.644L340.556 272.626C342.379 272.379 344.087 272.033 345.679 271.586L345.137 269.66ZM340.273 270.646C338.569 270.903 336.752 271.032 334.821 271.032V273.032C336.841 273.032 338.758 272.897 340.571 272.624L340.273 270.646ZM334.821 271.032C331.567 271.032 328.736 270.678 326.316 269.987L325.766 271.91C328.405 272.664 331.427 273.032 334.821 273.032V271.032ZM326.318 269.987C323.904 269.291 321.926 268.34 320.358 267.152L319.15 268.746C320.954 270.112 323.167 271.16 325.764 271.909L326.318 269.987ZM320.358 267.152C318.78 265.957 317.607 264.578 316.816 263.017L315.032 263.921C315.975 265.78 317.356 267.388 319.15 268.746L320.358 267.152ZM316.823 263.032C316.05 261.44 315.659 259.712 315.659 257.832H313.659C313.659 259.999 314.112 262.029 315.024 263.906L316.823 263.032ZM324.933 257.471C324.933 258.35 325.162 259.191 325.6 259.98L327.349 259.008C327.064 258.497 326.933 257.988 326.933 257.471H324.933ZM325.608 259.994C326.071 260.795 326.781 261.469 327.672 262.036L328.746 260.349C328.047 259.904 327.601 259.445 327.341 258.994L325.608 259.994ZM327.691 262.048C328.594 262.595 329.705 263.024 330.997 263.354L331.491 261.416C330.326 261.119 329.414 260.753 328.727 260.337L327.691 262.048ZM331.019 263.359C332.367 263.67 333.952 263.818 335.761 263.818V261.818C334.052 261.818 332.627 261.677 331.469 261.41L331.019 263.359ZM335.761 263.818C337.7 263.818 339.582 263.644 341.405 263.295L341.028 261.33C339.335 261.655 337.58 261.818 335.761 261.818V263.818ZM341.405 263.295C343.211 262.948 344.901 262.489 346.474 261.915L345.788 260.036C344.326 260.57 342.74 261.002 341.028 261.33L341.405 263.295ZM346.474 261.915C348.041 261.343 349.47 260.68 350.757 259.922L349.743 258.199C348.573 258.887 347.256 259.5 345.788 260.036L346.474 261.915ZM350.757 259.922C352.034 259.172 353.121 258.382 354.007 257.549L352.636 256.092C351.883 256.8 350.923 257.504 349.743 258.199L350.757 259.922ZM354.321 256.82V254.941H352.321V256.82H354.321ZM353.59 253.978C351.927 253.514 350.275 253.122 348.634 252.803L348.253 254.767C349.839 255.075 351.439 255.454 353.052 255.905L353.59 253.978ZM348.637 252.804C347.023 252.486 345.467 252.241 343.969 252.069L343.74 254.056C345.181 254.221 346.684 254.458 348.25 254.766L348.637 252.804ZM343.987 252.071C342.519 251.876 341.12 251.74 339.791 251.667L339.68 253.663C340.952 253.734 342.3 253.864 343.722 254.054L343.987 252.071ZM339.792 251.667C338.502 251.594 337.362 251.557 336.375 251.557V253.557C337.315 253.557 338.415 253.592 339.679 253.663L339.792 251.667ZM336.375 251.557C334.338 251.557 332.605 251.691 331.193 251.974L331.585 253.935C332.822 253.687 334.413 253.557 336.375 253.557V251.557ZM331.193 251.974C329.806 252.251 328.625 252.64 327.685 253.165L328.661 254.911C329.358 254.521 330.321 254.187 331.585 253.935L331.193 251.974ZM327.705 253.154C326.773 253.648 326.024 254.285 325.566 255.103L327.311 256.08C327.527 255.695 327.935 255.295 328.641 254.922L327.705 253.154ZM325.566 255.103C325.15 255.845 324.933 256.639 324.933 257.471H326.933C326.933 257.002 327.052 256.543 327.311 256.08L325.566 255.103ZM378.47 211.329V210.329H377.47V211.329H378.47ZM389.165 211.329H390.165V210.329H389.165V211.329ZM389.165 271.273V272.273H390.165V271.273H389.165ZM378.47 271.273H377.47V272.273H378.47V271.273ZM378.47 212.329H389.165V210.329H378.47V212.329ZM388.165 211.329V271.273H390.165V211.329H388.165ZM389.165 270.273H378.47V272.273H389.165V270.273ZM379.47 271.273V211.329H377.47V271.273H379.47ZM404.594 258.193L405.108 257.336L404.232 256.81L403.725 257.697L404.594 258.193ZM414.133 262.023L413.903 262.997L414.133 262.023ZM436.246 254.978L435.606 255.746L435.616 255.754L436.246 254.978ZM425.442 254.472L425.544 255.467L425.553 255.466L425.562 255.465L425.442 254.472ZM421.721 254.833L421.629 253.837L421.627 253.837L421.721 254.833ZM410.411 254.074L410.115 255.03L410.119 255.03L410.411 254.074ZM402.679 247.679L401.746 248.04L401.748 248.045L402.679 247.679ZM407.665 232.142L408.241 232.959L408.248 232.954L407.665 232.142ZM414.458 228.998L414.189 228.035L414.187 228.036L414.458 228.998ZM428.73 228.203L428.614 229.196L428.621 229.197L428.628 229.198L428.73 228.203ZM439.462 230.19L439.196 231.155L439.21 231.158L439.462 230.19ZM443.87 231.6L444.797 231.974L445.175 231.041L444.238 230.67L443.87 231.6ZM440.51 239.91L440.161 240.848L441.072 241.186L441.437 240.285L440.51 239.91ZM432.344 237.525L432.126 238.501L432.136 238.504L432.344 237.525ZM418.902 237.092L419.108 238.07L419.121 238.068L418.902 237.092ZM415.542 238.284L416.028 239.158L416.037 239.153L416.046 239.148L415.542 238.284ZM413.627 239.982L412.781 239.45L412.775 239.458L413.627 239.982ZM413.338 243.343L412.433 243.769L412.443 243.79L412.454 243.811L413.338 243.343ZM414.35 244.427L413.785 245.252L413.81 245.269L413.835 245.284L414.35 244.427ZM416.192 245.113L415.972 246.089L415.99 246.093L416.008 246.096L416.192 245.113ZM425.768 244.788L425.865 245.783L425.875 245.782L425.884 245.781L425.768 244.788ZM429.562 244.391L429.471 243.395L429.469 243.395L429.562 244.391ZM440.293 245.113L439.991 246.067L439.995 246.068L440.293 245.113ZM447.881 251.473L448.801 251.081L447.881 251.473ZM447.267 262.529L446.386 262.056L447.267 262.529ZM442.642 267.552L443.205 268.378L443.212 268.373L442.642 267.552ZM434.981 270.84L434.73 269.872L434.728 269.872L434.981 270.84ZM417.312 271.562L417.448 270.572L417.438 270.57L417.312 271.562ZM410.772 270.37L410.525 271.339L410.535 271.342L410.772 270.37ZM404.919 268.527L404.558 269.46L404.562 269.462L404.919 268.527ZM399.969 266.287L399.1 265.791L398.589 266.686L399.499 267.17L399.969 266.287ZM404.079 259.051C407.063 260.841 410.34 262.155 413.903 262.997L414.363 261.05C410.988 260.254 407.906 259.014 405.108 257.336L404.079 259.051ZM413.903 262.997C417.449 263.834 421.079 264.252 424.792 264.252V262.252C421.23 262.252 417.755 261.851 414.363 261.05L413.903 262.997ZM424.792 264.252C427.288 264.252 429.409 264.081 431.136 263.726L430.733 261.767C429.184 262.085 427.21 262.252 424.792 262.252V264.252ZM431.136 263.726C432.827 263.377 434.242 262.919 435.346 262.326L434.4 260.564C433.529 261.032 432.318 261.44 430.733 261.767L431.136 263.726ZM435.346 262.326C436.428 261.746 437.29 261.036 437.824 260.158L436.114 259.12C435.828 259.59 435.293 260.085 434.4 260.564L435.346 262.326ZM437.824 260.158C438.315 259.347 438.583 258.484 438.583 257.579H436.583C436.583 258.072 436.441 258.581 436.114 259.12L437.824 260.158ZM438.583 257.579C438.583 256.223 437.966 255.085 436.876 254.201L435.616 255.754C436.309 256.316 436.583 256.912 436.583 257.579H438.583ZM436.886 254.209C435.744 253.257 434.002 252.894 431.91 252.894V254.894C433.865 254.894 435.014 255.253 435.606 255.746L436.886 254.209ZM431.91 252.894C430.928 252.894 429.88 252.956 428.765 253.08L428.985 255.068C430.038 254.951 431.013 254.894 431.91 254.894V252.894ZM428.765 253.08C427.677 253.201 426.53 253.334 425.323 253.479L425.562 255.465C426.763 255.32 427.905 255.188 428.985 255.068L428.765 253.08ZM425.341 253.477C424.164 253.597 422.926 253.717 421.629 253.837L421.813 255.829C423.116 255.708 424.36 255.587 425.544 255.467L425.341 253.477ZM421.627 253.837C420.382 253.955 419.113 254.014 417.818 254.014V256.014C419.174 256.014 420.506 255.952 421.815 255.829L421.627 253.837ZM417.818 254.014C414.995 254.014 412.63 253.707 410.704 253.118L410.119 255.03C412.288 255.694 414.861 256.014 417.818 256.014V254.014ZM410.707 253.119C408.779 252.522 407.259 251.723 406.108 250.746L404.814 252.271C406.217 253.462 407.996 254.373 410.115 255.03L410.707 253.119ZM406.108 250.746C404.949 249.763 404.123 248.619 403.609 247.313L401.748 248.045C402.39 249.677 403.419 251.087 404.814 252.271L406.108 250.746ZM403.611 247.318C403.081 245.947 402.812 244.468 402.812 242.873H400.812C400.812 244.698 401.12 246.423 401.746 248.04L403.611 247.318ZM402.812 242.873C402.812 240.868 403.277 239.036 404.204 237.359L402.454 236.391C401.357 238.376 400.812 240.542 400.812 242.873H402.812ZM404.204 237.359C405.136 235.673 406.474 234.205 408.241 232.959L407.089 231.324C405.099 232.728 403.546 234.416 402.454 236.391L404.204 237.359ZM408.248 232.954C410.017 231.684 412.171 230.682 414.729 229.961L414.187 228.036C411.446 228.808 409.071 229.901 407.082 231.329L408.248 232.954ZM414.727 229.961C417.299 229.243 420.182 228.878 423.383 228.878V226.878C420.032 226.878 416.964 227.26 414.189 228.035L414.727 229.961ZM423.383 228.878C425.051 228.878 426.795 228.984 428.614 229.196L428.847 227.21C426.957 226.989 425.135 226.878 423.383 226.878V228.878ZM428.628 229.198C430.481 229.388 432.296 229.649 434.075 229.981L434.442 228.015C432.608 227.673 430.738 227.404 428.832 227.208L428.628 229.198ZM434.075 229.981C435.856 230.313 437.563 230.705 439.196 231.155L439.727 229.226C438.037 228.761 436.275 228.357 434.442 228.015L434.075 229.981ZM439.21 231.158C440.842 231.584 442.271 232.042 443.502 232.529L444.238 230.67C442.916 230.146 441.407 229.664 439.714 229.223L439.21 231.158ZM442.943 231.225L439.583 239.535L441.437 240.285L444.797 231.974L442.943 231.225ZM440.858 238.973C438.092 237.945 435.323 237.136 432.552 236.547L432.136 238.504C434.808 239.071 437.483 239.852 440.161 240.848L440.858 238.973ZM432.562 236.549C429.79 235.931 426.934 235.622 423.997 235.622V237.622C426.793 237.622 429.502 237.916 432.126 238.501L432.562 236.549ZM423.997 235.622C421.951 235.622 420.175 235.782 418.684 236.116L419.121 238.068C420.424 237.775 422.045 237.622 423.997 237.622V235.622ZM418.696 236.113C417.257 236.416 416.026 236.844 415.038 237.42L416.046 239.148C416.792 238.713 417.802 238.345 419.108 238.07L418.696 236.113ZM415.056 237.41C414.084 237.95 413.302 238.621 412.781 239.45L414.473 240.515C414.771 240.043 415.266 239.582 416.028 239.158L415.056 237.41ZM412.775 239.458C412.298 240.234 412.049 241.076 412.049 241.97H414.049C414.049 241.466 414.185 240.984 414.479 240.507L412.775 239.458ZM412.049 241.97C412.049 242.605 412.171 243.211 412.433 243.769L414.243 242.917C414.12 242.656 414.049 242.346 414.049 241.97H412.049ZM412.454 243.811C412.76 244.389 413.22 244.865 413.785 245.252L414.914 243.601C414.564 243.362 414.349 243.116 414.222 242.875L412.454 243.811ZM413.835 245.284C414.434 245.644 415.157 245.905 415.972 246.089L416.413 244.138C415.735 243.985 415.228 243.788 414.864 243.569L413.835 245.284ZM416.008 246.096C416.859 246.256 417.864 246.33 419.011 246.33V244.33C417.941 244.33 417.068 244.26 416.377 244.13L416.008 246.096ZM419.011 246.33C420.062 246.33 421.169 246.268 422.332 246.144L422.121 244.155C421.019 244.272 419.983 244.33 419.011 244.33V246.33ZM422.332 246.144C423.462 246.024 424.639 245.904 425.865 245.783L425.67 243.793C424.439 243.914 423.256 244.034 422.121 244.155L422.332 246.144ZM425.884 245.781C427.104 245.638 428.361 245.506 429.654 245.386L429.469 243.395C428.161 243.516 426.888 243.649 425.651 243.795L425.884 245.781ZM429.652 245.387C430.946 245.269 432.265 245.21 433.608 245.21V243.21C432.206 243.21 430.827 243.271 429.471 243.395L429.652 245.387ZM433.608 245.21C436.087 245.21 438.209 245.503 439.991 246.067L440.595 244.16C438.571 243.52 436.237 243.21 433.608 243.21V245.21ZM439.995 246.068C441.819 246.638 443.279 247.422 444.408 248.399L445.717 246.886C444.34 245.695 442.621 244.793 440.591 244.159L439.995 246.068ZM444.408 248.399C445.55 249.387 446.397 250.541 446.961 251.865L448.801 251.081C448.113 249.466 447.08 248.066 445.717 246.886L444.408 248.399ZM446.961 251.865C447.53 253.2 447.82 254.667 447.82 256.278H449.82C449.82 254.421 449.484 252.684 448.801 251.081L446.961 251.865ZM447.82 256.278C447.82 258.357 447.341 260.278 446.386 262.056L448.147 263.003C449.263 260.927 449.82 258.68 449.82 256.278H447.82ZM446.386 262.056C445.434 263.826 444.008 265.386 442.071 266.73L443.212 268.373C445.371 266.875 447.027 265.087 448.147 263.003L446.386 262.056ZM442.078 266.726C440.148 268.043 437.707 269.098 434.73 269.872L435.233 271.808C438.374 270.991 441.04 269.855 443.205 268.378L442.078 266.726ZM434.728 269.872C431.795 270.641 428.366 271.032 424.431 271.032V273.032C428.493 273.032 432.098 272.629 435.235 271.807L434.728 269.872ZM424.431 271.032C422.016 271.032 419.689 270.878 417.448 270.572L417.177 272.553C419.513 272.873 421.931 273.032 424.431 273.032V271.032ZM417.438 270.57C415.184 270.286 413.042 269.895 411.01 269.399L410.535 271.342C412.647 271.857 414.864 272.261 417.187 272.555L417.438 270.57ZM411.02 269.401C408.982 268.88 407.068 268.277 405.275 267.593L404.562 269.462C406.432 270.175 408.419 270.8 410.525 271.339L411.02 269.401ZM405.28 267.595C403.505 266.909 401.892 266.178 400.439 265.404L399.499 267.17C401.032 267.986 402.72 268.749 404.558 269.46L405.28 267.595ZM400.837 266.783L405.462 258.689L403.725 257.697L399.1 265.791L400.837 266.783Z" fill="white" mask="url(#path-2-outside-1_238_65)"/>
</svg>
